<svg width="904" height="510" viewBox="0 0 904 510" fill="none" xmlns="http://www.w3.org/2000/svg">
<g clip-path="url(#clip0_23_47)">
<path d="M903.807 15.4294H341.011V282.486H903.807V15.4294Z" fill="#E6E6E6"/>
<path d="M887.715 38.33H357.104V261.143H887.715V38.33Z" fill="white"/>
<path d="M903.567 0H340.771V23.9092H903.567V0Z" fill="url(#paint0_linear_23_47)"/>
<path d="M358.539 15.4907C360.986 15.4907 362.97 13.5066 362.97 11.0592C362.97 8.61173 360.986 6.62769 358.539 6.62769C356.091 6.62769 354.107 8.61173 354.107 11.0592C354.107 13.5066 356.091 15.4907 358.539 15.4907Z" fill="white"/>
<path d="M375.359 15.4907C377.807 15.4907 379.791 13.5066 379.791 11.0592C379.791 8.61173 377.807 6.62769 375.359 6.62769C372.912 6.62769 370.928 8.61173 370.928 11.0592C370.928 13.5066 372.912 15.4907 375.359 15.4907Z" fill="white"/>
<path d="M392.181 15.4907C394.628 15.4907 396.612 13.5066 396.612 11.0592C396.612 8.61173 394.628 6.62769 392.181 6.62769C389.733 6.62769 387.749 8.61173 387.749 11.0592C387.749 13.5066 389.733 15.4907 392.181 15.4907Z" fill="white"/>
<path d="M594.432 91.2079C593.863 91.2079 593.317 91.4341 592.914 91.8367C592.512 92.2393 592.286 92.7854 592.286 93.3548C592.286 93.9242 592.512 94.4702 592.914 94.8728C593.317 95.2755 593.863 95.5016 594.432 95.5016H712.236C712.806 95.5016 713.352 95.2755 713.755 94.8728C714.157 94.4702 714.383 93.9242 714.383 93.3548C714.383 92.7854 714.157 92.2393 713.755 91.8367C713.352 91.4341 712.806 91.2079 712.236 91.2079H594.432Z" fill="#E6E6E6"/>
<path d="M594.432 104.09C593.864 104.092 593.319 104.318 592.917 104.721C592.516 105.123 592.29 105.669 592.29 106.237C592.29 106.806 592.516 107.351 592.917 107.754C593.319 108.156 593.864 108.383 594.432 108.384H654.574C655.142 108.383 655.687 108.156 656.089 107.754C656.49 107.351 656.716 106.806 656.716 106.237C656.716 105.669 656.49 105.123 656.089 104.721C655.687 104.318 655.142 104.092 654.574 104.09H594.432Z" fill="#E6E6E6"/>
<path d="M591.468 166.444C590.899 166.444 590.353 166.67 589.95 167.073C589.547 167.475 589.321 168.021 589.321 168.591C589.321 169.16 589.547 169.706 589.95 170.109C590.353 170.511 590.899 170.737 591.468 170.737H812.351C812.92 170.737 813.466 170.511 813.869 170.109C814.272 169.706 814.498 169.16 814.498 168.591C814.498 168.021 814.272 167.475 813.869 167.073C813.466 166.67 812.92 166.444 812.351 166.444H591.468Z" fill="#E6E6E6"/>
<path d="M591.468 179.326C590.899 179.327 590.355 179.554 589.953 179.957C589.551 180.359 589.326 180.904 589.326 181.473C589.326 182.042 589.551 182.587 589.953 182.99C590.355 183.392 590.899 183.619 591.468 183.62H754.688C755.257 183.619 755.802 183.392 756.203 182.99C756.605 182.587 756.831 182.042 756.831 181.473C756.831 180.904 756.605 180.359 756.203 179.957C755.802 179.554 755.257 179.327 754.688 179.326H591.468Z" fill="#E6E6E6"/>
<path d="M591.468 191.917C590.899 191.918 590.355 192.145 589.953 192.548C589.551 192.95 589.326 193.496 589.326 194.064C589.326 194.633 589.551 195.178 589.953 195.581C590.355 195.983 590.899 196.21 591.468 196.211H812.351C812.92 196.21 813.464 195.983 813.866 195.581C814.268 195.178 814.493 194.633 814.493 194.064C814.493 193.496 814.268 192.95 813.866 192.548C813.464 192.145 812.92 191.918 812.351 191.917H591.468Z" fill="#E6E6E6"/>
<path d="M591.468 204.8C590.899 204.801 590.355 205.028 589.953 205.43C589.551 205.833 589.326 206.378 589.326 206.947C589.326 207.515 589.551 208.061 589.953 208.463C590.355 208.866 590.899 209.092 591.468 209.094H754.688C755.257 209.092 755.802 208.866 756.203 208.463C756.605 208.061 756.831 207.515 756.831 206.947C756.831 206.378 756.605 205.833 756.203 205.43C755.802 205.028 755.257 204.801 754.688 204.8H591.468Z" fill="#E6E6E6"/>
<path d="M475.989 175.157C486.314 175.157 494.683 166.787 494.683 156.462C494.683 146.138 486.314 137.768 475.989 137.768C465.664 137.768 457.295 146.138 457.295 156.462C457.295 166.787 465.664 175.157 475.989 175.157Z" fill="url(#paint1_linear_23_47)"/>
<path d="M470.069 141.507C470.069 141.507 478.793 143.844 483.311 144.778C487.829 145.713 487.361 143.065 487.361 143.065C487.361 143.065 493.281 143.844 492.97 143.221C492.658 142.597 495.462 139.326 492.191 135.587C488.919 131.848 489.854 129.044 489.854 129.044H487.05L486.271 127.954H481.909C481.909 127.954 477.086 123.725 468.518 124.971C459.95 126.217 449.817 129.511 448.882 134.652C448.755 135.35 448.589 136.124 448.395 136.943C446.052 146.834 451.03 156.089 456.193 164.845C457.462 166.997 463.6 171.689 463.443 168.47C463.286 165.251 457.918 158.02 461.657 157.553C465.396 157.085 471.783 147.583 470.069 141.507Z" fill="#2F2E41"/>
<path d="M465.384 216.898C461.775 216.609 458.196 216.021 454.685 215.14L454.882 211.412L456.519 181.77L456.533 181.542H489.464L494.632 208.835L495.329 212.518C493.965 213.048 492.586 213.548 491.177 213.988C491.161 213.988 491.161 214.003 491.147 214.003C489.192 214.609 487.206 215.14 485.205 215.579C482.545 216.153 479.853 216.568 477.144 216.822C475.049 217.03 472.945 217.131 470.84 217.125C469.021 217.125 467.187 217.049 465.384 216.898Z" fill="url(#paint2_linear_23_47)"/>
<path d="M444.213 211.624C442.849 211.033 441.531 210.396 440.228 209.73L439.667 209.442C439.288 209.245 438.894 209.032 438.515 208.82C438 208.532 437.499 208.244 437.015 207.956C436.545 207.684 436.06 207.396 435.59 207.108C435.56 207.093 435.545 207.077 435.515 207.077C433.878 206.032 432.272 204.956 430.726 203.789C430.468 203.592 430.211 203.395 429.953 203.198L429.68 198.834L430.074 198.591L456.519 181.77L456.882 181.542L456.912 181.527L460.64 181.542V195.424C462.747 198.47 464.171 204.85 465.05 213.2C465.172 214.397 465.278 215.625 465.384 216.898C461.775 216.609 458.197 216.021 454.685 215.14C454.306 215.064 453.942 214.973 453.563 214.867C451.355 214.289 449.179 213.591 447.047 212.776C446.395 212.533 445.759 212.275 445.122 212.018L445.062 211.987C444.789 211.866 444.486 211.745 444.213 211.624Z" fill="#2F2E41"/>
<path d="M438.515 208.82C437.999 208.532 437.499 208.245 437.015 207.957C436.545 207.684 436.06 207.396 435.59 207.108C435.56 207.093 435.545 207.078 435.515 207.078C433.878 206.032 432.271 204.956 430.726 203.789C430.468 203.592 430.21 203.395 429.952 203.198C429.832 203.092 429.71 203.001 429.574 202.895C428.604 202.152 427.664 201.38 426.755 200.561C426.71 200.531 426.68 200.485 426.634 200.455C427.552 199.749 428.582 199.201 429.68 198.834L430.756 199.152L438.424 201.455L438.469 204.562L438.515 208.82Z" fill="#2F2E41"/>
<path d="M503.088 208.866C502.633 209.108 502.179 209.351 501.724 209.578C501.618 209.639 501.527 209.684 501.436 209.73C500.83 210.033 500.239 210.336 499.633 210.624C499.618 210.639 499.587 210.639 499.587 210.654C499.557 210.669 499.512 210.684 499.482 210.7C498.118 211.351 496.738 211.957 495.329 212.518C493.965 213.048 492.586 213.549 491.177 213.988C491.161 213.988 491.161 214.003 491.147 214.003C489.192 214.609 487.206 215.14 485.205 215.579C485.183 214.334 485.347 213.093 485.691 211.897L485.706 211.684L487.009 190.589L485.266 181.542L490.267 180.8L517.773 195.606C517.773 195.606 514.742 198.637 502.3 205.092C501.2 205.663 502.815 207.563 503.088 208.866Z" fill="#2F2E41"/>
<path d="M476.811 213.185C474.84 213.367 472.84 213.458 470.84 213.458C468.9 213.458 466.975 213.382 465.05 213.2C465.172 214.397 465.278 215.625 465.384 216.898C467.187 217.049 469.021 217.125 470.84 217.125C472.945 217.131 475.049 217.03 477.144 216.822C479.853 216.568 482.545 216.153 485.205 215.579C485.183 214.334 485.347 213.093 485.691 211.897L485.706 211.684C482.78 212.397 479.808 212.898 476.811 213.185ZM534.078 128.138C530.876 118.939 525.706 110.549 518.928 103.554C512.15 96.5587 503.928 91.1259 494.835 87.6346C485.742 84.1433 475.996 82.6775 466.278 83.3394C456.561 84.0013 447.104 86.775 438.568 91.4671C430.033 96.1591 422.623 102.657 416.856 110.507C411.09 118.356 407.105 127.37 405.179 136.918C403.254 146.466 403.434 156.319 405.708 165.791C407.982 175.262 412.294 184.123 418.345 191.756C418.951 192.514 419.572 193.272 420.209 193.999C420.269 194.06 420.3 194.105 420.345 194.151C421.909 195.955 423.574 197.67 425.331 199.288C425.755 199.682 426.194 200.076 426.634 200.455C426.68 200.485 426.71 200.531 426.755 200.561C427.664 201.379 428.604 202.152 429.574 202.895C429.71 203.001 429.832 203.092 429.952 203.198C430.211 203.395 430.468 203.592 430.726 203.789C432.271 204.956 433.878 206.032 435.515 207.078C435.545 207.078 435.56 207.093 435.59 207.108C436.06 207.396 436.545 207.684 437.015 207.956C437.5 208.244 438 208.532 438.515 208.82C438.894 209.032 439.288 209.245 439.667 209.442L440.227 209.73C441.531 210.396 442.849 211.033 444.213 211.624C444.486 211.745 444.789 211.866 445.062 211.988L445.122 212.018C445.759 212.275 446.395 212.533 447.047 212.776C449.179 213.591 451.355 214.289 453.563 214.867C453.942 214.973 454.306 215.064 454.685 215.14C458.196 216.021 461.775 216.609 465.384 216.898C467.187 217.049 469.021 217.125 470.84 217.125C472.945 217.131 475.049 217.03 477.143 216.822C479.853 216.568 482.545 216.153 485.205 215.579C487.206 215.14 489.191 214.609 491.146 214.003C491.161 214.003 491.161 213.988 491.177 213.988C492.586 213.549 493.965 213.048 495.329 212.518C496.738 211.957 498.118 211.351 499.481 210.7C499.512 210.684 499.557 210.669 499.587 210.654C499.587 210.639 499.618 210.639 499.633 210.624C500.239 210.336 500.83 210.033 501.436 209.73C501.527 209.684 501.618 209.639 501.724 209.578C502.179 209.351 502.633 209.108 503.088 208.866C503.118 208.851 503.133 208.835 503.163 208.82C504.361 208.154 505.543 207.456 506.71 206.714C507.028 206.517 507.347 206.32 507.665 206.093C508.135 205.805 508.589 205.486 509.028 205.168C509.62 204.759 510.21 204.335 510.787 203.895C510.978 203.772 511.16 203.635 511.332 203.486C512.742 202.425 514.105 201.304 515.408 200.122C525.291 191.315 532.341 179.776 535.664 166.962C538.987 154.149 538.436 140.638 534.078 128.138L534.078 128.138ZM514.272 196.212C512.631 197.755 510.912 199.212 509.12 200.576C508.726 200.879 508.316 201.182 507.908 201.455C507.513 201.758 507.119 202.046 506.71 202.319C506.362 202.562 506.013 202.804 505.649 203.031C505.619 203.062 505.574 203.077 505.543 203.107C505.285 203.289 505.013 203.456 504.755 203.622C503.952 204.122 503.118 204.623 502.3 205.092C502.103 205.198 501.921 205.32 501.724 205.426C501.618 205.486 501.512 205.547 501.391 205.608C500.936 205.865 500.481 206.093 500.027 206.335C499.966 206.38 499.891 206.396 499.83 206.441C499.807 206.445 499.786 206.455 499.769 206.471C499.451 206.638 499.133 206.79 498.815 206.941C498.542 207.078 498.284 207.214 498.011 207.335C496.905 207.866 495.768 208.366 494.632 208.835C493.435 209.32 492.223 209.76 490.995 210.169C490.692 210.275 490.373 210.396 490.055 210.487C488.615 210.942 487.176 211.351 485.706 211.684C482.78 212.396 479.808 212.898 476.811 213.185C474.84 213.367 472.84 213.458 470.84 213.458C468.9 213.458 466.975 213.382 465.05 213.2C461.617 212.886 458.216 212.288 454.882 211.412C454.76 211.381 454.624 211.351 454.503 211.321C451.768 210.608 449.089 209.696 446.486 208.593C446.35 208.532 446.198 208.487 446.077 208.426C445.925 208.366 445.789 208.32 445.668 208.259C445.516 208.199 445.38 208.138 445.244 208.078C444.107 207.578 443.001 207.032 441.895 206.471L441.379 206.199C440.394 205.683 439.424 205.153 438.469 204.562C438.136 204.38 437.788 204.168 437.454 203.956C437.075 203.728 436.696 203.486 436.332 203.243C436.242 203.183 436.151 203.122 436.06 203.062C435.211 202.486 434.348 201.91 433.529 201.289C432.954 200.864 432.393 200.455 431.832 200.016C431.468 199.743 431.105 199.455 430.756 199.152C430.529 198.985 430.302 198.788 430.074 198.591C429.771 198.333 429.468 198.076 429.165 197.803C428.695 197.424 428.256 197 427.831 196.606C426.125 195.033 424.511 193.364 422.997 191.605C422.482 191.029 421.996 190.453 421.527 189.847C421.418 189.728 421.316 189.601 421.224 189.468C413.594 179.837 408.933 168.193 407.808 155.958C406.684 143.723 409.144 131.425 414.89 120.564C420.636 109.703 429.418 100.749 440.166 94.795C450.913 88.8406 463.162 86.1429 475.416 87.0311C487.671 87.9193 499.403 92.3549 509.179 99.7969C518.956 107.239 526.356 117.365 530.475 128.941C534.595 140.517 535.256 153.041 532.379 164.986C529.502 176.932 523.21 187.781 514.272 196.212L514.272 196.212Z" fill="#3F3D56"/>
<path d="M163.436 496.698L175.696 496.697L181.528 449.409L163.434 449.41L163.436 496.698Z" fill="#A0616A"/>
<path d="M160.309 492.695L184.453 492.694H184.454C188.535 492.694 192.448 494.315 195.334 497.201C198.219 500.086 199.84 504 199.841 508.08V508.58L160.31 508.582L160.309 492.695Z" fill="#2F2E41"/>
<path d="M209.436 496.698L221.696 496.697L227.528 449.409L209.434 449.41L209.436 496.698Z" fill="#A0616A"/>
<path d="M206.309 492.695L230.453 492.694H230.454C234.535 492.694 238.448 494.315 241.334 497.201C244.219 500.086 245.84 504 245.841 508.08V508.58L206.31 508.582L206.309 492.695Z" fill="#2F2E41"/>
<path d="M126.237 309.84C127.24 308.766 127.996 307.484 128.45 306.086C128.905 304.688 129.048 303.207 128.868 301.748C128.688 300.289 128.191 298.887 127.411 297.641C126.631 296.395 125.587 295.335 124.353 294.536L132.872 259.831L115.379 266.064L109.972 298.065C108.767 300.227 108.397 302.756 108.932 305.172C109.467 307.589 110.87 309.725 112.874 311.177C114.879 312.628 117.347 313.294 119.81 313.047C122.272 312.801 124.559 311.66 126.237 309.84V309.84Z" fill="#CC9C8D"/>
<path d="M256.378 306.84C255.374 305.766 254.619 304.484 254.164 303.086C253.709 301.688 253.567 300.207 253.746 298.748C253.926 297.289 254.423 295.887 255.203 294.641C255.983 293.395 257.027 292.335 258.261 291.536L249.743 256.831L267.235 263.064L272.642 295.065C273.847 297.227 274.218 299.756 273.683 302.172C273.148 304.589 271.745 306.725 269.74 308.177C267.735 309.628 265.268 310.294 262.805 310.047C260.342 309.801 258.055 308.66 256.378 306.84V306.84Z" fill="#C48B79"/>
<path d="M142.367 285.513L159.36 484.578L184.224 482.311L194.175 328.461L203.033 389.379L204.807 486.145L227.307 484.645L239.801 380.545L236.736 279.728L151.319 271.078L142.367 285.513Z" fill="#2F2E41"/>
<path d="M189.112 104.368C203.353 104.368 214.898 92.8236 214.898 78.5825C214.898 64.3414 203.353 52.7968 189.112 52.7968C174.871 52.7968 163.326 64.3414 163.326 78.5825C163.326 92.8236 174.871 104.368 189.112 104.368Z" fill="url(#paint3_linear_23_47)"/>
<path d="M180.947 57.9539C180.947 57.9539 192.98 61.1771 199.212 62.4664C205.443 63.7557 204.799 60.1027 204.799 60.1027C204.799 60.1027 212.964 61.1771 212.534 60.3176C212.104 59.458 215.972 54.9456 211.46 49.7884C206.947 44.6312 208.237 40.7634 208.237 40.7634H204.369L203.294 39.2592H197.278C197.278 39.2592 190.626 33.4262 178.807 35.1452C166.989 36.8642 153.012 41.408 151.723 48.4991C151.548 49.4609 151.318 50.5295 151.05 51.6581C147.819 65.3018 154.685 78.0674 161.807 90.1452C163.557 93.1134 172.024 99.5859 171.807 95.1452C171.591 90.7044 164.186 80.7313 169.343 80.0866C174.5 79.442 183.31 66.3343 180.947 57.9539Z" fill="#2F2E41"/>
<path d="M162.28 113.177H207.691L239.801 282.752C239.801 282.752 211.807 285.145 195.807 291.145C179.807 297.145 153.209 277.439 153.209 277.439L162.28 113.177Z" fill="url(#paint4_linear_23_47)"/>
<path d="M167.949 132.326V113.176L162.807 113.145L125.24 137.03L133.392 267.893C133.392 267.893 143.04 311.551 157.673 311.098C172.307 310.645 183.591 155.007 167.949 132.326Z" fill="#2F2E41"/>
<path d="M137.307 140.645L125.24 137.03C125.24 137.03 116.307 139.645 116.307 148.645C116.307 157.645 108.61 285.513 108.61 285.513L133.061 287.674L138.307 222.645L137.307 140.645Z" fill="#2F2E41"/>
<path d="M204.307 125.645L201.902 113.176L208.807 112.145L233.807 122.145C233.807 122.145 256.307 286.645 246.307 291.645C236.307 296.645 229.555 292.771 229.555 292.771C229.555 292.771 196.664 171.445 202.486 155.045L204.307 125.645Z" fill="#2F2E41"/>
<path d="M216.307 124.645L220.574 122.788C220.574 122.788 233.097 116.582 240.202 129.114C247.307 141.645 272.307 281.645 272.307 281.645L251.737 285.513L236.358 235.129L216.307 124.645Z" fill="#2F2E41"/>
</g>
<defs>
<linearGradient id="paint0_linear_23_47" x1="341" y1="11.9998" x2="904" y2="12" gradientUnits="userSpaceOnUse">
<stop stop-color="#9B20BD"/>
<stop offset="1" stop-color="#5A0D70"/>
</linearGradient>
<linearGradient id="paint1_linear_23_47" x1="455.5" y1="156" x2="496" y2="156" gradientUnits="userSpaceOnUse">
<stop stop-color="#CC9C8D"/>
<stop offset="1" stop-color="#C38B79"/>
</linearGradient>
<linearGradient id="paint2_linear_23_47" x1="475.007" y1="181.542" x2="475" y2="252.5" gradientUnits="userSpaceOnUse">
<stop stop-color="#A30DBC"/>
<stop offset="1" stop-color="#200D97" stop-opacity="0.4"/>
</linearGradient>
<linearGradient id="paint3_linear_23_47" x1="151" y1="79" x2="223.5" y2="79" gradientUnits="userSpaceOnUse">
<stop stop-color="#CC9C8D"/>
<stop offset="1" stop-color="#C38B79"/>
</linearGradient>
<linearGradient id="paint4_linear_23_47" x1="196.505" y1="113.177" x2="196.505" y2="292.282" gradientUnits="userSpaceOnUse">
<stop stop-color="#A30DBC"/>
<stop offset="1" stop-color="#200D97" stop-opacity="0.4"/>
</linearGradient>
<clipPath id="clip0_23_47">
<rect width="903.807" height="509.145" fill="white"/>
</clipPath>
</defs>
</svg>
