<svg width="16" height="15" viewBox="0 0 16 15" fill="none" xmlns="http://www.w3.org/2000/svg">
<path d="M12 0H4.056L0 4.66667L8 14.6667L16 4.722L12 0ZM4.222 5.33333L6.376 10.502L2.24067 5.33333H4.222ZM10.3333 5.33333L8 10.9333L5.66667 5.33333H10.3333ZM6.09 4L8 1.708L9.91 4H6.09ZM11.778 5.33333H13.7967L9.608 10.5407L11.778 5.33333ZM13.6407 4H11.646L9.42333 1.33333H11.382L13.6407 4ZM4.664 1.33333H6.57667L4.354 4H2.34667L4.664 1.33333Z" fill="url(#paint0_linear_632_2)"/>
<path d="M12 0H4.056L0 4.66667L8 14.6667L16 4.722L12 0ZM4.222 5.33333L6.376 10.502L2.24067 5.33333H4.222ZM10.3333 5.33333L8 10.9333L5.66667 5.33333H10.3333ZM6.09 4L8 1.708L9.91 4H6.09ZM11.778 5.33333H13.7967L9.608 10.5407L11.778 5.33333ZM13.6407 4H11.646L9.42333 1.33333H11.382L13.6407 4ZM4.664 1.33333H6.57667L4.354 4H2.34667L4.664 1.33333Z" fill="url(#paint1_linear_632_2)"/>
<defs>
<linearGradient id="paint0_linear_632_2" x1="8" y1="0" x2="8" y2="14.6667" gradientUnits="userSpaceOnUse">
<stop stop-color="#A30DBC"/>
<stop offset="0.510417" stop-color="#200D97"/>
<stop offset="1" stop-color="#200D97" stop-opacity="0.49"/>
</linearGradient>
<linearGradient id="paint1_linear_632_2" x1="8" y1="0" x2="8" y2="14.6667" gradientUnits="userSpaceOnUse">
<stop stop-color="#BEA8C5"/>
<stop offset="1" stop-color="#AA3EBC"/>
</linearGradient>
</defs>
</svg>
