<svg width="50" height="46" viewBox="0 0 50 46" fill="none" xmlns="http://www.w3.org/2000/svg">
<path d="M37.5 0.0833435H12.675L0 14.6667L25 45.9167L50 14.8396L37.5 0.0833435ZM13.1937 16.75L19.925 32.9021L7.00208 16.75H13.1937ZM32.2917 16.75L25 34.25L17.7083 16.75H32.2917ZM19.0312 12.5833L25 5.42084L30.9687 12.5833H19.0312ZM36.8062 16.75H43.1146L30.025 33.0229L36.8062 16.75ZM42.6271 12.5833H36.3937L29.4479 4.25001H35.5687L42.6271 12.5833ZM14.575 4.25001H20.5521L13.6062 12.5833H7.33333L14.575 4.25001Z" fill="url(#paint0_linear_1_34)"/>
<defs>
<linearGradient id="paint0_linear_1_34" x1="25" y1="0.0833435" x2="25" y2="45.9167" gradientUnits="userSpaceOnUse">
<stop stop-color="#A30DBC"/>
<stop offset="1" stop-color="#200D97" stop-opacity="0.49"/>
<stop offset="1" stop-color="#200D97" stop-opacity="0.49"/>
</linearGradient>
</defs>
</svg>
