<svg width="660" height="465" viewBox="0 0 660 465" fill="none" xmlns="http://www.w3.org/2000/svg">
<rect width="660" height="465" transform="matrix(-1 0 0 1 660 0)" fill="url(#paint0_linear_39_7)"/>
<path opacity="0.1" d="M276.537 68.7555C318.846 67.3709 359.147 54.4724 397.625 40.3655C436.102 26.2586 474.225 10.6092 515.524 3.1519C542.089 -1.65769 572.461 -2.31354 593.866 11.1072C614.456 24.042 621.115 46.3775 624.693 67.1037C627.385 82.6923 628.967 99.1008 621.594 113.7C616.47 123.829 607.379 132.349 601.092 142.053C579.208 175.83 594.675 217.476 618.388 250.451C629.51 265.9 642.408 280.681 650.992 297.144C659.575 313.607 663.536 332.481 656.033 349.279C648.589 365.93 630.856 378.428 611.641 387.233C572.62 405.099 526.634 410.212 481.769 413.109C382.542 419.54 282.777 416.74 183.231 413.965C146.4 412.933 109.44 411.894 73.1765 406.514C53.0583 403.526 32.2848 398.789 17.6861 387.348C-0.861908 372.828 -5.45456 348.234 6.97177 330.028C27.8102 299.482 85.4376 291.891 100.007 259.117C108.041 241.069 99.7766 220.962 88.1295 204.238C63.1352 168.342 21.2339 136.831 19.0262 95.8155C17.509 67.632 37.6509 39.406 68.7964 26.0703C101.441 12.1031 146.719 13.852 170.798 37.0012C195.598 60.8123 239.176 69.9821 276.537 68.7555Z" fill="url(#paint1_linear_39_7)"/>
<path opacity="0.1" d="M186.029 465C143.971 465 109.877 459.29 109.877 452.247C109.877 445.204 143.971 439.495 186.029 439.495C228.086 439.495 262.181 445.204 262.181 452.247C262.181 459.29 228.086 465 186.029 465Z" fill="#6C63FF"/>
<path d="M485.624 236.569L485.813 247.281L487.36 334.133L500.589 366.009L546.186 366.543V241.5L498.6 237.625L485.624 236.569Z" fill="#5F5D7E"/>
<path opacity="0.1" d="M485.624 236.569L485.813 247.281L487.36 334.133L500.589 366.009L546.186 366.543V241.5L498.6 237.625L485.624 236.569Z" fill="black"/>
<path d="M485.624 236.569L485.813 247.281L487.36 334.133L500.589 366.009L497.106 247.488L497.118 247.409L498.599 237.625L485.624 236.569Z" fill="#5F5D7E"/>
<path opacity="0.1" d="M498.6 237.625L485.624 236.569L485.813 247.281L497.118 247.409L546.186 247.973V241.5L498.6 237.625Z" fill="black"/>
<path d="M75.7681 241.5V365.82H86.3821L128.85 333.957V237.996L90.9099 234.328L88.5841 235.427L86.3821 236.471L75.7681 241.5Z" fill="#5F5D7E"/>
<path opacity="0.1" d="M75.7681 235.427H86.3821V365.821H75.7681V235.427Z" fill="black"/>
<path opacity="0.1" d="M75.7681 235.427V242.574L86.3821 242.702L128.85 243.182V237.996L90.9099 234.328L88.5841 235.427L86.3821 236.471V235.427H75.7681Z" fill="black"/>
<path d="M75.7681 231.371V241.5L597.349 247.488V234.595L548.275 224.387L121.194 221.168L75.7681 231.371Z" fill="#5F5D7E"/>
<path opacity="0.1" d="M75.7681 231.371V241.5L597.349 247.488V234.595L75.7681 231.371Z" fill="black"/>
<path opacity="0.1" d="M508.47 229.203C495.484 229.203 484.957 228.509 484.957 227.654C484.957 226.799 495.484 226.105 508.47 226.105C521.455 226.105 531.982 226.799 531.982 227.654C531.982 228.509 521.455 229.203 508.47 229.203Z" fill="black"/>
<path d="M488.735 167.783C489.233 168.491 489.631 169.268 489.916 170.091C489.987 170.291 490.058 170.522 490.128 170.74C490.262 170.675 490.403 170.626 490.547 170.595C491.154 170.435 491.782 170.377 492.407 170.425C492.407 170.178 492.395 169.917 492.372 169.641C492.295 166.811 492.62 162.864 495.246 164.534C497.761 166.143 495.967 168.821 494.343 170.552C494.202 170.704 494.06 170.844 493.924 170.977C495.406 172.07 495.695 174.59 495.937 177.226C496.179 179.862 498.357 182.752 499.798 184.392L500.211 184.847C500.794 184.366 501.47 184.018 502.193 183.827C502.917 183.635 503.672 183.604 504.408 183.736C504.475 183.505 504.54 183.262 504.603 183.007C505.784 178.665 508.198 171.141 511.297 169.489L510.89 168.961C509.574 167.188 508.092 164.558 510.3 163.884C512.508 163.21 512.661 166.168 512.561 168.378C512.561 168.657 512.525 168.919 512.502 169.168C512.936 169.191 513.362 169.305 513.752 169.502C514.143 169.699 514.49 169.976 514.774 170.315C514.881 170.182 514.987 170.048 515.111 169.902C516.882 167.747 520.14 164.334 521.126 166.921C522.041 169.35 519.178 172.447 517.159 174.256L517.035 174.372C518.387 180.019 512.484 184.623 509.302 186.633L508.895 186.894C513.281 192.207 515.979 202.173 515.979 202.173L503.7 204.432C503.7 204.432 495.559 197.205 496.616 190.416H496.533C488.399 188.74 486.545 179.813 487.814 174.518L487.667 174.457C486.187 173.829 484.89 172.818 483.9 171.524C481.622 168.263 486.398 164.589 488.735 167.783Z" fill="#6C63FF"/>
<path opacity="0.1" d="M488.433 167.996C488.931 168.704 489.329 169.481 489.614 170.304C489.685 170.504 489.756 170.735 489.827 170.954C489.96 170.888 490.101 170.839 490.246 170.808C490.853 170.648 491.481 170.591 492.105 170.638C492.105 170.391 492.093 170.13 492.07 169.855C491.993 167.025 492.318 163.077 494.945 164.747C497.459 166.357 495.665 169.035 494.042 170.766C493.9 170.917 493.758 171.057 493.622 171.191C495.104 172.284 495.393 174.804 495.635 177.439C495.877 180.075 498.056 182.966 499.496 184.605L499.909 185.061C500.492 184.58 501.168 184.232 501.892 184.04C502.615 183.849 503.37 183.818 504.107 183.949C504.173 183.719 504.238 183.476 504.301 183.221C505.482 178.879 507.896 171.355 510.996 169.703L510.588 169.174C509.272 167.401 507.79 164.772 509.998 164.098C512.206 163.424 512.359 166.381 512.259 168.591C512.259 168.871 512.223 169.132 512.2 169.381C512.634 169.405 513.06 169.518 513.45 169.716C513.841 169.913 514.189 170.189 514.473 170.529C514.579 170.395 514.685 170.261 514.809 170.116C516.58 167.96 519.839 164.547 520.825 167.134C521.74 169.563 518.876 172.66 516.858 174.47L516.734 174.585C518.085 180.233 512.182 184.836 509 186.846L508.593 187.107C512.979 192.421 515.677 202.386 515.677 202.386L503.398 204.645C503.398 204.645 495.258 197.419 496.314 190.629H496.232C488.097 188.953 486.243 180.026 487.513 174.731L487.365 174.67C485.885 174.042 484.588 173.032 483.599 171.737C481.32 168.476 486.096 164.802 488.433 167.996Z" fill="black"/>
<path d="M513.18 171.427L514.615 175.75C514.615 175.75 515.412 175.173 516.421 174.256C518.434 172.435 521.303 169.325 520.382 166.921C519.397 164.334 516.144 167.747 514.367 169.902C513.653 170.765 513.18 171.427 513.18 171.427Z" fill="#9B20BD"/>
<path d="M510.152 168.961C510.589 169.551 511.056 170.116 511.551 170.655C511.673 169.901 511.758 169.141 511.805 168.378C511.923 166.168 511.699 163.228 509.544 163.884C507.389 164.54 508.836 167.188 510.152 168.961Z" fill="#9B20BD"/>
<path d="M491.634 169.642C491.675 171.063 491.811 172.198 491.811 172.198C492.438 171.693 493.03 171.143 493.582 170.552C495.205 168.822 497.006 166.144 494.485 164.534C491.882 162.864 491.557 166.812 491.634 169.642Z" fill="#9B20BD"/>
<path d="M483.151 171.505C484.14 172.8 485.437 173.81 486.917 174.439C487.328 174.621 487.75 174.777 488.18 174.906L489.875 172.477C489.693 171.67 489.458 170.877 489.172 170.103C488.887 169.28 488.489 168.503 487.991 167.795C485.648 164.589 480.872 168.263 483.151 171.505Z" fill="#9B20BD"/>
<path opacity="0.1" d="M514.367 169.902C513.653 170.765 513.186 171.427 513.186 171.427L514.621 175.75C514.621 175.75 515.418 175.173 516.427 174.256C516.204 172.872 515.648 171.568 514.81 170.461C514.662 170.261 514.515 170.072 514.367 169.902Z" fill="black"/>
<path opacity="0.1" d="M510.152 168.961C510.589 169.55 511.056 170.116 511.551 170.655C511.673 169.901 511.758 169.141 511.805 168.378C511.209 168.392 510.631 168.595 510.152 168.961Z" fill="black"/>
<path d="M503.092 186.123L506.663 187.738C507.315 187.404 507.949 187.035 508.564 186.633C512.319 184.259 519.863 178.283 514.804 171.233C509.745 164.182 505.524 176.826 503.865 183.008C503.363 184.854 503.092 186.123 503.092 186.123Z" fill="#9B20BD"/>
<path opacity="0.1" d="M493.599 170.558C493.082 170.007 492.378 169.68 491.634 169.647C491.675 171.068 491.811 172.204 491.811 172.204C492.444 171.7 493.042 171.15 493.599 170.558Z" fill="black"/>
<path opacity="0.1" d="M486.917 174.439C487.328 174.622 487.75 174.778 488.18 174.907L489.875 172.477C489.693 171.671 489.458 170.877 489.172 170.103C488.08 170.747 487.277 172.38 486.917 174.439Z" fill="black"/>
<path d="M495.784 190.398C495.98 190.439 496.177 190.475 496.374 190.507C508.34 192.384 500.317 185.734 500.317 185.734C500.317 185.734 499.78 185.224 499.048 184.392C497.608 182.753 495.429 179.88 495.182 177.226C494.81 173.237 494.373 169.496 489.792 170.595C485.211 171.694 484.449 188.066 495.784 190.398Z" fill="#9B20BD"/>
<path d="M496.002 221.059H518.877V227.247H496.002V221.059Z" fill="#474157"/>
<path d="M492.625 200.952H522.514V222.547H492.625V200.952Z" fill="#474157"/>
<path opacity="0.1" d="M496.226 221.059H519.101V227.247H496.226V221.059Z" fill="black"/>
<path opacity="0.1" d="M492.72 200.952H522.608V222.547H492.72V200.952Z" fill="black"/>
<path d="M494.497 221.059H517.372V227.247H494.497V221.059Z" fill="#474157"/>
<path opacity="0.1" d="M503.865 183.007C503.363 184.829 503.092 186.123 503.092 186.123L506.663 187.738C507.315 187.403 507.95 187.035 508.564 186.633C507.165 184.811 505.589 183.432 503.865 183.007Z" fill="black"/>
<path opacity="0.1" d="M495.784 190.398C495.98 190.439 496.177 190.475 496.374 190.507C508.34 192.384 500.317 185.734 500.317 185.734C500.317 185.734 499.78 185.224 499.048 184.392C496.829 186.232 495.884 188.303 495.784 190.398Z" fill="black"/>
<path d="M515.247 202.173C515.247 202.173 508.541 177.487 499.143 185.096C489.745 192.706 502.968 204.432 502.968 204.432L515.247 202.173Z" fill="#9B20BD"/>
<path opacity="0.1" d="M511.858 175.872C511.444 175.872 511.108 175.527 511.108 175.101C511.108 174.675 511.444 174.33 511.858 174.33C512.272 174.33 512.608 174.675 512.608 175.101C512.608 175.527 512.272 175.872 511.858 175.872Z" fill="black"/>
<path opacity="0.1" d="M511.923 179.485C511.509 179.485 511.173 179.14 511.173 178.714C511.173 178.288 511.509 177.943 511.923 177.943C512.337 177.943 512.673 178.288 512.673 178.714C512.673 179.14 512.337 179.485 511.923 179.485Z" fill="black"/>
<path opacity="0.1" d="M490.117 176.583C489.703 176.583 489.367 176.237 489.367 175.811C489.367 175.385 489.703 175.04 490.117 175.04C490.531 175.04 490.866 175.385 490.866 175.811C490.866 176.237 490.531 176.583 490.117 176.583Z" fill="black"/>
<path opacity="0.1" d="M507.661 195.08C507.247 195.08 506.911 194.735 506.911 194.309C506.911 193.883 507.247 193.538 507.661 193.538C508.075 193.538 508.411 193.883 508.411 194.309C508.411 194.735 508.075 195.08 507.661 195.08Z" fill="black"/>
<path opacity="0.1" d="M491.687 182.576C491.273 182.576 490.937 182.231 490.937 181.805C490.937 181.379 491.273 181.034 491.687 181.034C492.101 181.034 492.437 181.379 492.437 181.805C492.437 182.231 492.101 182.576 491.687 182.576Z" fill="black"/>
<path opacity="0.1" d="M499.455 190.568C499.041 190.568 498.706 190.223 498.706 189.797C498.706 189.371 499.041 189.025 499.455 189.025C499.87 189.025 500.205 189.371 500.205 189.797C500.205 190.223 499.87 190.568 499.455 190.568Z" fill="black"/>
<path opacity="0.1" d="M509.29 177.42C508.876 177.42 508.541 177.075 508.541 176.649C508.541 176.223 508.876 175.878 509.29 175.878C509.704 175.878 510.04 176.223 510.04 176.649C510.04 177.075 509.704 177.42 509.29 177.42Z" fill="black"/>
<path opacity="0.1" d="M492.189 178.902C491.775 178.902 491.439 178.557 491.439 178.131C491.439 177.705 491.775 177.36 492.189 177.36C492.603 177.36 492.938 177.705 492.938 178.131C492.938 178.557 492.603 178.902 492.189 178.902Z" fill="black"/>
<path opacity="0.1" d="M494.757 184.896C494.342 184.896 494.007 184.551 494.007 184.125C494.007 183.699 494.342 183.354 494.757 183.354C495.171 183.354 495.506 183.699 495.506 184.125C495.506 184.551 495.171 184.896 494.757 184.896Z" fill="black"/>
<path opacity="0.1" d="M502.649 194.503C502.235 194.503 501.899 194.158 501.899 193.732C501.899 193.306 502.235 192.96 502.649 192.96C503.063 192.96 503.399 193.306 503.399 193.732C503.399 194.158 503.063 194.503 502.649 194.503Z" fill="black"/>
<path opacity="0.1" d="M504.278 190.702C503.864 190.702 503.529 190.356 503.529 189.93C503.529 189.504 503.864 189.159 504.278 189.159C504.692 189.159 505.028 189.504 505.028 189.93C505.028 190.356 504.692 190.702 504.278 190.702Z" fill="black"/>
<path opacity="0.1" d="M508.163 182.127C507.749 182.127 507.413 181.782 507.413 181.356C507.413 180.93 507.749 180.584 508.163 180.584C508.577 180.584 508.912 180.93 508.912 181.356C508.912 181.782 508.577 182.127 508.163 182.127Z" fill="black"/>
<path opacity="0.1" d="M494.497 221.059H517.372V223.318H494.497V221.059Z" fill="black"/>
<path d="M491.12 200.952H521.008V222.547H491.12V200.952Z" fill="#474157"/>
<path opacity="0.1" d="M501.646 197.983C501.232 197.983 500.896 197.638 500.896 197.212C500.896 196.786 501.232 196.44 501.646 196.44C502.06 196.44 502.395 196.786 502.395 197.212C502.395 197.638 502.06 197.983 501.646 197.983Z" fill="black"/>
<path opacity="0.1" d="M506.162 198.948C505.747 198.948 505.412 198.603 505.412 198.177C505.412 197.751 505.747 197.406 506.162 197.406C506.576 197.406 506.911 197.751 506.911 198.177C506.911 198.603 506.576 198.948 506.162 198.948Z" fill="black"/>
<path d="M434.49 283.468C434.49 283.468 430.765 288.478 436.208 296.045C441.651 303.611 446.143 310.012 444.331 314.712C444.331 314.712 436.114 300.66 429.431 300.466C422.749 300.271 427.158 291.915 434.49 283.468Z" fill="#9B20BD"/>
<path opacity="0.1" d="M434.49 283.468C434.168 283.952 433.911 284.479 433.729 285.035C427.206 292.93 423.729 300.284 430.004 300.466C435.842 300.636 442.849 311.397 444.526 314.093C444.473 314.299 444.408 314.502 444.331 314.7C444.331 314.7 436.114 300.648 429.431 300.454C422.749 300.259 427.158 291.915 434.49 283.468Z" fill="black"/>
<path d="M427.589 289.851C427.589 291.618 427.784 293.045 428.02 293.045C428.256 293.045 428.451 291.618 428.451 289.851C428.451 288.084 428.209 288.922 427.973 288.922C427.737 288.922 427.589 288.09 427.589 289.851Z" fill="#FFD037"/>
<path d="M425.216 291.958C426.722 292.802 428.032 293.312 428.168 293.1C428.304 292.887 427.153 292.025 425.647 291.181C424.142 290.337 424.738 290.95 424.626 291.181C424.514 291.412 423.711 291.114 425.216 291.958Z" fill="#FFD037"/>
<path d="M454.189 283.468C454.189 283.468 457.92 288.478 452.472 296.045C447.023 303.611 442.536 310.012 444.355 314.712C444.355 314.712 452.566 300.66 459.254 300.466C465.943 300.271 461.545 291.915 454.189 283.468Z" fill="#9B20BD"/>
<path opacity="0.1" d="M454.189 283.468C454.515 283.95 454.771 284.478 454.951 285.035C461.48 292.93 464.951 300.284 458.682 300.466C452.838 300.636 445.83 311.397 444.154 314.093C444.213 314.306 444.278 314.512 444.355 314.7C444.355 314.7 452.566 300.648 459.254 300.454C465.943 300.259 461.545 291.915 454.189 283.468Z" fill="black"/>
<path d="M461.12 289.851C461.12 291.618 460.925 293.045 460.689 293.045C460.453 293.045 460.258 291.618 460.258 289.851C460.258 288.084 460.5 288.922 460.736 288.922C460.972 288.922 461.12 288.09 461.12 289.851Z" fill="#FFD037"/>
<path d="M463.493 291.958C461.988 292.802 460.677 293.312 460.541 293.1C460.406 292.887 461.551 292.025 463.056 291.181C464.561 290.337 463.971 290.95 464.083 291.181C464.195 291.412 464.998 291.114 463.493 291.958Z" fill="#FFD037"/>
<path opacity="0.1" d="M444.349 353.049C422.837 353.049 405.399 350.295 405.399 346.898C405.399 343.5 422.837 340.746 444.349 340.746C465.86 340.746 483.298 343.5 483.298 346.898C483.298 350.295 465.86 353.049 444.349 353.049Z" fill="#6C63FF"/>
<path d="M424.307 307.96L424.496 309.526L424.756 311.737L424.862 312.654L425.122 314.87L425.24 315.787L425.5 317.998L428.481 343.133C428.746 345.38 432.306 347.129 436.61 347.129H452.1C456.397 347.129 459.957 345.38 460.223 343.133L463.21 317.998L463.469 315.787L463.576 314.87L463.847 312.654L463.953 311.737L464.213 309.526L464.402 307.96C464.55 306.69 462.631 305.622 460.187 305.622H428.516C426.084 305.622 424.154 306.69 424.307 307.96Z" fill="#65617D"/>
<path d="M424.49 309.521L424.756 311.731H463.947L464.213 309.521H424.49Z" fill="#9D9CB5"/>
<path d="M424.862 312.654L425.122 314.864H463.576L463.841 312.654H424.862Z" fill="#9D9CB5"/>
<path d="M425.234 315.787L425.494 317.998H463.204L463.469 315.787H425.234Z" fill="#9D9CB5"/>
<path d="M326.189 222.589V223.84H362.146V222.826C359.882 221.964 357.928 220.409 356.55 218.37C355.171 216.331 354.434 213.906 354.436 211.422C354.436 209.094 355.086 206.816 356.308 204.858C357.531 202.899 359.274 201.344 361.331 200.375H326.432C328.513 201.351 330.274 202.928 331.501 204.914C332.728 206.901 333.367 209.211 333.341 211.564C333.316 213.917 332.626 216.211 331.356 218.169C330.087 220.126 328.292 221.662 326.189 222.589Z" fill="#C8CAD7"/>
<path opacity="0.1" d="M326.431 200.375C328.035 201.132 329.453 202.249 330.582 203.643C331.711 205.038 332.522 206.675 332.955 208.434H354.797C355.233 206.675 356.047 205.038 357.177 203.644C358.308 202.249 359.727 201.133 361.331 200.375H326.431Z" fill="black"/>
<path d="M403.321 193.999V201.025C403.321 204.9 400.558 208.045 397.158 208.045H291.366C287.966 208.045 285.203 204.9 285.203 201.025V193.999H403.321Z" fill="#C8CAD7"/>
<path opacity="0.1" d="M326.189 222.589V223.84H362.146V222.826C361.16 222.449 360.227 221.938 359.372 221.308H328.391C327.704 221.815 326.966 222.244 326.189 222.589Z" fill="black"/>
<path d="M316.101 221.697H372.223C373.217 221.697 374.023 222.526 374.023 223.549C374.023 224.572 373.217 225.401 372.223 225.401H316.101C315.106 225.401 314.3 224.572 314.3 223.549C314.3 222.526 315.106 221.697 316.101 221.697Z" fill="#C8CAD7"/>
<path d="M285.203 117.064C285.203 116.231 285.363 115.407 285.672 114.637C285.982 113.868 286.436 113.169 287.008 112.581C287.581 111.992 288.26 111.525 289.008 111.206C289.756 110.888 290.557 110.724 291.366 110.724H397.158C398.793 110.724 400.36 111.392 401.516 112.581C402.672 113.77 403.321 115.382 403.321 117.064V195.365H285.203V117.064Z" fill="#5F5D7E"/>
<path d="M288.426 119.888V187.173C288.426 188.001 288.746 188.795 289.315 189.381C289.884 189.966 290.656 190.295 291.461 190.295H397.064C397.869 190.295 398.64 189.966 399.209 189.381C399.778 188.795 400.098 188.001 400.098 187.173V119.888C400.089 119.339 399.938 118.802 399.661 118.333C399.394 117.859 399.011 117.466 398.55 117.192C398.089 116.918 397.567 116.773 397.034 116.772H291.461C290.657 116.772 289.886 117.1 289.317 117.685C288.748 118.269 288.428 119.061 288.426 119.888Z" fill="#9B20BD"/>
<path d="M344.259 115.205C343.474 115.205 342.837 114.55 342.837 113.742C342.837 112.934 343.474 112.278 344.259 112.278C345.045 112.278 345.682 112.934 345.682 113.742C345.682 114.55 345.045 115.205 344.259 115.205Z" fill="white"/>
<path d="M344.259 204.924C342.323 204.924 340.753 203.309 340.753 201.317C340.753 199.324 342.323 197.709 344.259 197.709C346.196 197.709 347.766 199.324 347.766 201.317C347.766 203.309 346.196 204.924 344.259 204.924Z" fill="white"/>
<path d="M288.426 119.887H400.098C400.098 119.06 399.778 118.266 399.209 117.68C398.64 117.095 397.869 116.766 397.064 116.766H291.461C290.656 116.766 289.884 117.095 289.315 117.68C288.746 118.266 288.426 119.06 288.426 119.887Z" fill="white"/>
<path d="M397.058 119.104C396.641 119.104 396.302 118.756 396.302 118.327C396.302 117.897 396.641 117.549 397.058 117.549C397.475 117.549 397.813 117.897 397.813 118.327C397.813 118.756 397.475 119.104 397.058 119.104Z" fill="#EDEDF4"/>
<path d="M394.785 119.104C394.368 119.104 394.03 118.756 394.03 118.327C394.03 117.897 394.368 117.549 394.785 117.549C395.202 117.549 395.541 117.897 395.541 118.327C395.541 118.756 395.202 119.104 394.785 119.104Z" fill="#EDEDF4"/>
<path d="M392.512 119.104C392.095 119.104 391.757 118.756 391.757 118.327C391.757 117.897 392.095 117.549 392.512 117.549C392.93 117.549 393.268 117.897 393.268 118.327C393.268 118.756 392.93 119.104 392.512 119.104Z" fill="#EDEDF4"/>
<path d="M272.151 256.183C272.151 256.183 265.067 259.147 256.372 262.699C256.074 263.722 255.845 264.765 255.687 265.821C255.534 267.886 251.555 270.794 251.555 270.794C251.555 270.794 244.176 272.167 238.621 273.776C234.306 274.991 233.709 272.562 234.264 271.614L232.971 272.124C232.682 284.415 232.352 293.379 232.352 293.379C232.352 293.379 230.463 293.379 227.481 293.525C227.446 293.913 227.411 294.314 227.369 294.739C226.23 306.885 224.134 326.924 222.511 328.588C220.15 330.939 221.194 348.258 222.104 351.319C223.013 354.379 222.104 376.405 222.104 376.405C222.104 376.405 218.449 389.862 218.756 404.546C219.063 419.23 214.801 426.881 214.801 426.881L213.272 426.997C213.272 427.404 213.32 427.805 213.337 428.211C213.408 429.541 213.461 430.871 213.479 432.08C213.574 433.925 214.189 435.702 215.25 437.193C217.697 440.791 219.384 444.877 220.203 449.187C220.382 450.15 220.508 451.123 220.581 452.101C220.581 452.344 220.61 452.478 220.61 452.478C220.61 452.478 219.193 456.765 205.899 458.192C192.605 459.619 194.53 449.727 194.53 449.727C194.53 449.727 194.465 449.448 194.382 448.938C193.8 445.593 193.782 442.171 194.329 438.82C194.795 436.209 194.394 431.691 193.815 427.549C193.756 427.118 193.691 426.693 193.632 426.274C192.52 426.035 191.476 425.536 190.58 424.817C186.418 420.912 190.58 389.868 190.58 389.868C190.58 389.868 198.089 364.478 196.259 360.804C194.429 357.13 192.304 348.264 192.304 348.264V317.366C189.352 312.465 188.024 305.761 187.475 299.658C187.44 299.251 187.404 298.85 187.375 298.443C184.913 298.492 182.552 298.401 180.409 298.249L179.819 299.464C176.336 306.405 172.794 313.279 171.926 314.293C170.102 316.437 171.625 326.226 171.926 331.121C172.227 336.015 168.579 345.805 168.579 345.805C173.142 348.556 174.057 380.984 174.057 380.984C174.057 380.984 170.71 388.939 177.711 397.811C184.712 406.684 181.973 423.511 181.058 422.898C180.816 422.734 179.335 422.983 177.227 423.341C177.61 424.795 178.295 426.146 179.234 427.3C181.495 430.191 182.268 434.721 182.493 438.341C182.625 440.227 182.625 442.12 182.493 444.006L177.422 447.65C177.422 447.65 174.275 447.65 174.275 450.51C174.275 453.371 166.566 456.219 166.566 456.219C166.566 456.219 155.102 459.48 146.271 456.219C143.407 455.162 142.534 453.346 142.87 451.142C143.567 446.533 149.559 440.211 153.88 435.62C156.796 432.505 158.124 428.375 158.715 424.798C158.78 424.416 158.833 424.039 158.88 423.669C158.524 423.462 158.206 423.193 157.941 422.873C154.287 418.282 150.332 405.742 150.332 405.742C150.332 405.742 152.138 392.929 148.183 381.281C145.232 372.664 141.648 352.466 139.984 342.574C139.375 338.985 139.264 335.325 139.653 331.704C140.42 324.483 141.601 311.105 141.182 300.514C141.04 297.059 141.141 291.563 141.371 285.12V285.029C139.204 280.82 134.505 273.952 126.666 273.387C115.302 272.568 121.188 266.149 121.188 266.149C121.188 266.149 127.852 217.974 132.244 209.424C132.311 209.274 132.388 209.13 132.475 208.992C133.124 207.93 133.832 205.804 134.582 202.968C138.909 186.542 144.446 146.073 144.446 146.073L145.125 136.229C138.348 139.648 125.774 145.885 120.704 147.707C113.62 150.257 103.761 148.623 101.323 140.261C98.8852 131.899 109.033 114.975 109.033 114.975C110.526 108.975 120.839 96.4831 126.205 90.2829C126.725 89.4752 127.238 88.6736 127.74 87.9085C129.122 85.7891 130.367 83.9187 131.158 82.8195L131.235 82.9714C131.43 82.692 131.613 82.4309 131.772 82.2123L131.902 82.4795C133.821 78.8358 135.975 75.089 137.646 73.0789C141.53 68.4151 158.473 63.399 160.149 64.7775C161.371 65.7795 156.3 70.1519 152.752 72.836L156.141 70.4798L163.715 63.7391L167.05 61.4193C167.189 61.3226 167.335 61.2373 167.487 61.1642C166.619 57.6566 166.514 53.9952 167.179 50.4409C167.844 46.8867 169.264 43.5272 171.336 40.602C171.572 40.268 171.826 39.934 172.079 39.6122C168.591 36.6244 167.487 31.6873 167.487 27.3453V27.1813C167.745 25.554 168.447 24.0356 169.512 22.8029C169.458 22.9122 169.405 23.0337 169.358 23.149C169.969 22.3455 170.741 21.6877 171.623 21.2212C172.504 20.7546 173.474 20.4904 174.464 20.4467C177.416 20.3981 179.889 22.3899 182.481 23.7563C185.147 25.13 188.07 25.8954 191.05 26.0002C194.03 26.105 196.997 25.5468 199.748 24.3636C201.348 23.6591 202.959 22.7239 204.695 22.8697C206.43 23.0154 207.806 24.1632 208.987 25.3595C211.825 28.1746 214.058 31.5717 215.539 35.3309C215.976 36.4301 216.366 37.6021 217.21 38.428C217.853 38.9676 218.549 39.4358 219.288 39.8247C220.56 40.6588 221.655 41.7497 222.507 43.0314C223.358 44.3132 223.948 45.7592 224.241 47.282C224.792 50.3137 224.482 53.4445 223.349 56.3C222.664 58.2766 221.545 60.0639 220.079 61.5225C218.975 62.5731 217.653 63.3443 216.484 64.3342C215.953 64.7789 215.458 65.2663 215.002 65.7916C220.311 67.0004 225.165 69.7682 228.975 73.7591C231.838 76.6046 234.23 79.911 236.059 83.5483C241 93.1006 243.999 99.0458 245.781 102.817C246.673 103.096 247.222 103.23 247.222 103.23C247.222 103.23 253.916 109.345 253.816 126.883L258.993 161.959V179.904C258.993 179.904 265.658 199.379 264.566 215.496C264.566 215.715 264.566 215.927 264.524 216.14L265.067 218.879C265.903 220.051 266.32 221.484 266.248 222.935C266.282 223.432 266.246 223.931 266.142 224.417L268.857 238.214L268.344 238.773L269.743 242.823C275.014 251.489 272.151 256.183 272.151 256.183ZM233.001 157.805C232.664 158.042 232.476 158.164 232.476 158.164C232.476 158.164 229.524 185.351 231.295 201.517L237.511 201.08L240.463 200.144L239.406 191.503C239.406 191.503 235.622 168.736 233.025 157.805H233.001ZM208.573 78.8905L207.983 77.9553C208.107 78.2893 208.231 78.6172 208.361 78.9209L208.573 78.8905ZM236.631 201.383L233.414 201.723L231.378 202.161C231.413 202.452 231.448 202.737 231.484 203.017L236.631 201.383ZM167.487 83.8398C167.488 83.5372 167.508 83.235 167.546 82.9349L165.019 84.4774L164.866 84.5746C165.739 84.3134 166.637 84.0827 167.487 83.8701V83.8398ZM147.876 95.8637C148.223 95.304 148.597 94.7628 148.998 94.2423C147.227 94.6796 146.129 94.9346 146.129 94.9346C144.715 94.682 143.261 94.8332 141.926 95.3718C141.493 96.2768 141.006 97.153 140.468 97.9953L135.804 107.287C135.804 107.287 136.819 107.39 138.85 106.37C140.881 105.349 147.876 95.8637 147.876 95.8637ZM236.478 270.758L235.02 271.365C235.344 271.468 235.864 271.226 236.478 270.758Z" fill="url(#paint2_linear_39_7)"/>
<path d="M185.964 71.1421C184.087 72.2777 184.028 77.1298 184.317 81.0224C184.523 83.8705 184.907 86.2024 184.907 86.2024L172.693 116.748C172.693 116.748 168.166 94.9836 168.095 85.2672C168.089 84.5006 168.203 83.738 168.431 83.0082C170.562 76.0063 182.534 72.1198 185.964 71.1421Z" fill="#67647E"/>
<path d="M186.843 70.899C186.843 70.899 186.513 70.978 185.94 71.1419C186.215 70.9793 186.527 70.8954 186.843 70.899Z" fill="#67647E"/>
<path d="M182.611 442.75L177.693 446.393C177.693 446.393 174.641 446.393 174.641 449.229C174.641 452.065 167.168 454.895 167.168 454.895C167.168 454.895 156.046 458.132 147.487 454.895C144.712 453.845 143.862 452.047 144.187 449.855C144.865 445.282 150.68 439.033 154.866 434.448C157.693 431.357 158.998 427.258 159.553 423.712C159.962 421.174 160.073 418.595 159.883 416.03L177.888 414.712C176.857 417.507 176.857 420.594 177.888 423.39C178.282 424.39 178.812 425.326 179.464 426.171C181.66 429.037 182.416 433.537 182.629 437.102C182.752 438.983 182.746 440.87 182.611 442.75Z" fill="#67647E"/>
<path d="M219.612 451.148C219.612 451.148 218.237 455.399 205.344 456.82C192.452 458.241 194.323 448.416 194.323 448.416C194.323 448.416 194.258 448.136 194.175 447.632C193.615 444.31 193.599 440.915 194.128 437.588C194.577 435.001 194.187 430.513 193.626 426.402C192.965 421.507 192.062 417.141 192.062 417.141L212.038 418.659C212.038 418.659 212.387 422.843 212.587 427.07C212.652 428.388 212.706 429.706 212.723 430.908C212.816 432.733 213.414 434.492 214.447 435.979C216.812 439.569 218.436 443.62 219.217 447.881C219.389 448.837 219.511 449.802 219.583 450.772C219.612 451.015 219.612 451.148 219.612 451.148Z" fill="#67647E"/>
<path d="M182.611 442.75L177.693 446.393C177.693 446.393 174.641 446.393 174.641 449.229C174.641 452.065 167.168 454.895 167.168 454.895C167.168 454.895 156.046 458.132 147.486 454.895C144.712 453.845 143.862 452.047 144.187 449.855C144.452 449.855 144.706 449.891 144.919 449.897C148.425 450.013 151.837 450.984 155.326 451.306C157.314 451.457 159.309 451.489 161.3 451.403C162.288 451.397 163.275 451.317 164.252 451.167C166.613 450.735 168.803 449.478 170.911 448.246C171.426 447.997 171.88 447.631 172.239 447.177C172.523 446.672 172.722 446.122 172.829 445.549C173.573 442.804 175.651 440.606 178.036 439.161C179.487 438.311 181.026 437.629 182.623 437.126C182.747 438.999 182.743 440.878 182.611 442.75Z" fill="#67647E"/>
<path d="M219.612 451.148C219.612 451.148 218.237 455.399 205.344 456.82C192.452 458.241 194.323 448.415 194.323 448.415C194.323 448.415 194.258 448.136 194.175 447.632C194.766 447.948 195.267 448.239 195.498 448.373C196.678 449.083 197.735 450.061 198.963 450.723C201.914 452.32 205.456 451.846 208.786 451.33C210.35 451.087 211.914 450.844 213.473 450.547C214.661 450.379 215.817 450.027 216.903 449.502C217.709 449.019 218.482 448.479 219.217 447.887C219.389 448.843 219.511 449.808 219.583 450.778C219.612 451.014 219.612 451.148 219.612 451.148Z" fill="#67647E"/>
<path opacity="0.1" d="M182.611 442.75L177.693 446.393C177.693 446.393 174.641 446.393 174.641 449.229C174.641 452.065 167.168 454.895 167.168 454.895C167.168 454.895 156.046 458.132 147.486 454.895C144.712 453.845 143.862 452.047 144.187 449.855C144.452 449.855 144.706 449.891 144.919 449.897C148.425 450.013 151.837 450.984 155.326 451.306C157.314 451.457 159.309 451.489 161.3 451.403C162.288 451.397 163.275 451.317 164.252 451.167C166.613 450.735 168.803 449.478 170.911 448.246C171.426 447.997 171.88 447.631 172.239 447.177C172.523 446.672 172.722 446.122 172.829 445.549C173.573 442.804 175.651 440.606 178.036 439.161C179.487 438.311 181.026 437.629 182.623 437.126C182.747 438.999 182.743 440.878 182.611 442.75Z" fill="black"/>
<path opacity="0.1" d="M219.612 451.148C219.612 451.148 218.237 455.399 205.344 456.82C192.452 458.241 194.323 448.415 194.323 448.415C194.323 448.415 194.258 448.136 194.175 447.632C194.766 447.948 195.267 448.239 195.498 448.373C196.678 449.083 197.735 450.061 198.963 450.723C201.914 452.32 205.456 451.846 208.786 451.33C210.35 451.087 211.914 450.844 213.473 450.547C214.661 450.379 215.817 450.027 216.903 449.502C217.709 449.019 218.482 448.479 219.217 447.887C219.389 448.843 219.511 449.808 219.583 450.778C219.612 451.014 219.612 451.148 219.612 451.148Z" fill="black"/>
<path opacity="0.1" d="M177.888 414.712C176.857 417.507 176.857 420.594 177.888 423.39C172.723 424.295 163.095 426.123 159.553 423.712C159.962 421.174 160.073 418.595 159.883 416.03L177.888 414.712Z" fill="black"/>
<path opacity="0.1" d="M212.582 427.07C208.933 427.337 199.116 427.866 193.62 426.402C192.959 421.507 192.056 417.141 192.056 417.141L212.033 418.659C212.033 418.659 212.381 422.843 212.582 427.07Z" fill="black"/>
<path d="M226.985 285.466C226.985 285.466 226.679 289.262 226.189 294.575C225.085 306.636 223.048 326.548 221.466 328.169C219.199 330.507 220.185 347.693 221.07 350.73C221.956 353.766 221.07 375.628 221.07 375.628C218.842 384.76 217.751 394.147 217.824 403.562C218.119 418.137 213.987 425.728 213.987 425.728C213.987 425.728 194.506 427.549 190.474 423.675C186.442 419.801 190.474 388.988 190.474 388.988C190.474 388.988 197.77 363.804 195.999 360.161C194.228 356.517 192.162 347.711 192.162 347.711V317.044C189.299 312.186 188.03 305.506 187.481 299.47C187.044 294.306 187.03 289.114 187.44 283.948C187.44 283.948 183.774 291.66 180.037 299.288C176.66 306.18 173.225 313 172.363 314.008C170.592 316.133 172.068 325.85 172.363 330.708C172.658 335.566 169.116 345.282 169.116 345.282C173.543 348.015 174.429 380.201 174.429 380.201C174.429 380.201 171.182 388.095 177.971 396.9C184.76 405.706 182.103 422.406 181.218 421.799C180.332 421.191 162.327 426.353 158.785 421.799C155.243 417.244 151.406 404.795 151.406 404.795C151.406 404.795 153.177 392.042 149.34 380.504C146.495 371.954 143.006 351.908 141.389 342.088C140.809 338.524 140.711 334.895 141.099 331.303C141.843 324.131 142.988 310.856 142.581 300.332C142.445 296.901 142.54 291.448 142.764 285.053C143.526 263.131 145.828 230.192 145.828 230.192L161.826 219.043L172.386 211.683L174.972 212.089L223.154 219.747L225.026 244.196L226.985 285.466Z" fill="#444053"/>
<path opacity="0.1" d="M161.814 219.055L160.97 223.828C160.97 223.828 153.886 258.746 152.41 276.661C150.934 294.575 144.736 289.414 144.736 289.414C144.195 287.909 143.531 286.455 142.752 285.066C143.514 263.143 145.816 230.205 145.816 230.205L161.814 219.055Z" fill="black"/>
<path d="M212.422 86.5848C212.422 86.5848 179.364 113.809 185.468 108.343C188.809 105.343 186.537 92.5543 183.797 81.6234C181.542 72.6054 178.974 64.8445 178.974 64.8445C178.974 64.8445 207.83 37.0739 205.734 59.7798C204.996 67.7837 205.61 73.4738 206.714 77.4939C208.739 84.8601 212.422 86.5848 212.422 86.5848Z" fill="#CC9C8D"/>
<path opacity="0.1" d="M209.671 79.3462L188.715 96.198L182.617 89.2144C182.617 89.2144 177.398 86.8885 177.009 89.518C176.619 92.1475 175.137 108.343 178.189 109.862C181.241 111.38 185.173 112.394 188.614 111.89C192.056 111.386 195.899 107.432 198.455 105.914C201.011 104.396 210.456 96.5016 210.456 96.5016L215.179 89.7245L209.671 79.3462Z" fill="black"/>
<path d="M209.671 79.9536L188.715 96.8054L182.617 89.8218C182.617 89.8218 177.398 87.4959 177.009 90.1254C176.619 92.7549 175.137 108.951 178.189 110.469C181.241 111.987 185.173 113.001 188.614 112.497C192.056 111.993 195.899 108.04 198.455 106.522C201.011 105.004 210.456 97.109 210.456 97.109L215.179 90.3319L209.671 79.9536Z" fill="#A36468"/>
<path opacity="0.1" d="M226.985 285.466C226.985 285.466 226.679 289.262 226.189 294.575C219.695 294.83 207.097 295.62 198.254 298C194.726 298.898 191.11 299.385 187.475 299.452C187.038 294.288 187.024 289.096 187.434 283.93C187.434 283.93 183.768 291.642 180.031 299.269C176.835 299.048 173.655 298.624 170.509 298L174.447 245.368C174.447 245.368 174.317 227.702 174.966 212.071L223.154 219.747L225.026 244.196L226.985 285.466Z" fill="black"/>
<path opacity="0.1" d="M190.781 94.7832C190.781 94.7832 205.096 78.6844 208.491 81.241C211.885 83.7976 214.081 90.0282 214.081 90.0282L202.422 103.182L190.781 94.7832Z" fill="black"/>
<path d="M191.371 94.1757C191.371 94.1757 205.687 78.077 209.081 80.6336C212.475 83.1902 214.671 89.4208 214.671 89.4208L203.012 102.574L191.371 94.1757Z" fill="#A36468"/>
<path opacity="0.1" d="M179.47 104.493L187.735 93.8354C187.735 93.8354 186.436 83.7608 183.414 85.0482C180.391 86.3356 179.47 91.4914 179.47 91.4914V104.493Z" fill="black"/>
<path d="M178.88 103.789L187.103 93.1313C187.103 93.1313 185.804 83.0567 182.782 84.3441C179.76 85.6315 178.88 90.7873 178.88 90.7873V103.789Z" fill="#A36468"/>
<path opacity="0.1" d="M216.755 84.6597C216.755 84.6597 199.807 103.485 189.689 104.748C188.774 104.864 187.859 105.021 186.956 105.21C184.311 105.744 178.549 105.21 179.464 89.6454L178.189 86.8884L170.314 91.8498L167.658 114.112L162.935 171.196L155.952 234.759C155.952 234.759 177.398 232.634 183.402 238.202C189.405 243.771 191.076 207.839 191.076 207.839L207.505 134.966L225.02 88.1029L216.755 84.6597Z" fill="black"/>
<path opacity="0.1" d="M225.02 90.5319L207.505 137.395L191.076 210.268C191.076 210.268 189.399 246.194 183.402 240.631C181.442 238.809 177.829 237.814 173.856 237.297C168.971 236.755 164.05 236.641 159.145 236.957C157.186 237.067 155.952 237.188 155.952 237.188L162.941 173.625L167.664 116.541L170.32 94.2788L178.189 89.3174L179.47 92.0744C179.47 92.4813 179.429 92.8821 179.411 93.289C178.856 107.669 184.388 108.179 186.956 107.657C187.865 107.469 188.774 107.311 189.695 107.195C196.861 106.291 207.452 96.5925 213.018 91.0178C215.315 88.7101 216.761 87.1069 216.761 87.1069L225.02 90.5319Z" fill="black"/>
<path d="M225.02 88.7102L207.505 135.573L191.076 208.446C191.076 208.446 189.399 244.372 183.402 238.81C181.442 236.988 177.829 235.992 173.856 235.476C168.971 234.933 164.05 234.819 159.145 235.136C157.186 235.245 155.952 235.366 155.952 235.366L162.941 171.803L167.664 114.72L170.32 92.457L178.189 87.4956L179.47 90.2526C179.47 90.6595 179.429 91.0603 179.411 91.4672C178.856 105.847 184.388 106.357 186.956 105.835C187.865 105.647 188.774 105.489 189.695 105.374C196.861 104.469 207.452 94.7707 213.018 89.196C215.315 86.8884 216.761 85.2852 216.761 85.2852L225.02 88.7102Z" fill="#D0CDE1"/>
<path opacity="0.1" d="M179.47 90.2526C179.47 90.6595 179.429 91.0603 179.411 91.4672L179.276 91.5643C177.198 92.9732 173.862 116.766 173.862 116.766L169.535 177.39L161.566 222.632C161.566 222.632 160.521 227.787 159.151 235.154C157.192 235.263 155.958 235.384 155.958 235.384L162.941 171.803L167.664 114.72L170.32 92.457L178.189 87.4956L179.47 90.2526Z" fill="black"/>
<path d="M184.889 86.2024C184.889 86.2024 180.167 90.1375 178.089 91.5464C176.011 92.9553 172.676 116.748 172.676 116.748L168.349 177.372L160.379 222.614C160.379 222.614 153.295 257.532 151.819 275.446C150.344 293.361 144.145 288.199 144.145 288.199C144.145 288.199 139.517 274.232 128.502 273.424C117.486 272.617 123.189 266.234 123.189 266.234C123.189 266.234 129.641 218.399 133.885 209.879C133.952 209.733 134.027 209.591 134.11 209.454C134.735 208.398 135.426 206.29 136.152 203.473C140.349 187.173 145.716 146.996 145.716 146.996L149.063 97.2001C157.628 82.8381 184.193 83.3361 184.193 83.3361L184.889 86.2024Z" fill="#67647E"/>
<path opacity="0.1" d="M225.02 88.7103L207.505 135.573L191.076 208.446C191.076 208.446 189.4 244.372 183.402 238.81C181.442 236.988 177.829 235.992 173.856 235.476C173.927 223.124 174.293 200.958 176.023 191.643C177.52 183.131 178.145 174.48 177.888 165.834L199.341 117.756C199.341 117.756 215.474 97.2971 215.574 94.3701C215.61 93.2891 214.465 91.2852 213.012 89.1779C215.309 86.8703 216.755 85.2671 216.755 85.2671L225.02 88.7103Z" fill="black"/>
<path d="M171.105 296.804L175.037 244.172C175.037 244.172 174.742 204.9 177.203 191.643C178.704 183.131 179.331 174.481 179.075 165.834L200.521 117.756C200.521 117.756 216.655 97.2972 216.755 94.3701C216.856 91.4431 208.308 81.7085 208.308 81.7085C208.308 81.7085 226.985 83.9554 229.447 92.5544C231.909 101.153 245.386 104.499 245.386 104.499C245.386 104.499 251.879 110.572 251.779 127.983C251.679 145.393 231.118 159.051 231.118 159.051C231.118 159.051 227.676 191.843 230.628 206.624C233.579 221.405 231.023 293.258 231.023 293.258C231.023 293.258 211.247 293.464 198.851 296.804C186.454 300.144 171.105 296.804 171.105 296.804Z" fill="#67647E"/>
<path d="M200.226 213.304L215.38 272.307C215.38 272.307 217.446 277.572 228.072 273.521C238.698 269.471 269.589 256.317 269.589 256.317C269.589 256.317 272.346 251.659 267.228 243.061L251.779 196.501L200.226 213.304Z" fill="#B07473"/>
<path d="M219.825 239.392L244.323 211.682L259.967 205.154L266.39 238.475L236.649 271.723L219.825 239.392Z" fill="#E1E7EF"/>
<path d="M246.006 248.647C246.006 248.647 238.721 253.05 236.803 253.202C234.884 253.354 228.107 266.513 230.97 266.41C233.833 266.307 240.492 262.767 239.825 264.588C239.158 266.41 234.819 271.876 233.556 271.359C232.293 270.843 231.708 275.367 237.098 273.788C242.487 272.21 249.642 270.825 249.642 270.825C249.642 270.825 253.479 267.94 253.627 265.894C253.774 263.847 257.092 253.062 257.092 253.062L246.006 248.647Z" fill="#CC9C8D"/>
<path d="M129.057 93.1858C129.057 93.1858 135.361 79.1882 139.128 74.5547C142.894 69.9212 159.323 64.9476 160.97 66.314C162.617 67.6804 152.705 75.3563 150.934 76.3401C149.163 77.3238 162.38 86.4633 162.646 86.6637C162.912 86.8641 172.977 85.7406 167.811 89.2324C162.646 92.7242 147.374 96.2829 147.374 96.2829C146.346 96.0992 145.292 96.1331 144.277 96.3827C143.262 96.6322 142.308 97.0921 141.471 97.7342C138.514 99.9447 129.057 93.1858 129.057 93.1858Z" fill="#CC9C8D"/>
<path opacity="0.1" d="M260.209 249.352C259.374 252.167 258.254 254.884 256.868 257.459C255.392 256.087 241.301 251.307 241.301 251.307L242.865 248.824L245.415 244.779C245.415 244.779 257.978 241.974 260.115 244.779C260.835 245.72 260.705 247.457 260.209 249.352Z" fill="black"/>
<path d="M260.799 248.745C259.965 251.56 258.845 254.277 257.458 256.852C255.982 255.479 241.891 250.7 241.891 250.7L243.456 248.216L246.006 244.172C246.006 244.172 258.568 241.366 260.705 244.172C261.425 245.113 261.295 246.85 260.799 248.745Z" fill="#A36468"/>
<path opacity="0.1" d="M143.461 96.3495C143.008 97.3917 142.475 98.3949 141.867 99.3494C139.594 103.036 136.152 107.384 136.152 107.384C136.152 107.384 122.728 101.032 122.728 100.752C122.728 100.473 126.802 93.8718 130.113 88.6675C131.453 86.5664 132.664 84.7081 133.431 83.6211C133.431 83.6211 138.443 94.4062 143.39 94.4791C144.683 94.4973 143.992 95.0317 143.461 96.3495Z" fill="black"/>
<path d="M142.87 96.9569C142.418 97.9991 141.885 99.0023 141.276 99.9569C139.004 103.643 135.562 107.991 135.562 107.991C135.562 107.991 122.138 101.639 122.138 101.36C122.138 101.08 126.211 94.4793 129.523 89.2749C130.863 87.1738 132.073 85.3155 132.841 84.2285C132.841 84.2285 137.852 95.0137 142.799 95.0865C144.092 95.1047 143.401 95.6391 142.87 96.9569Z" fill="#A36468"/>
<path d="M218.573 208.343L216.85 203.029L241.041 201.28L232.003 202.27L220.492 204.809L221.377 208.343H218.573Z" fill="#B07473"/>
<path opacity="0.1" d="M260.799 248.744C258.131 247.451 251.012 244.761 243.455 248.216L246.006 244.172C246.006 244.172 258.568 241.366 260.705 244.172C261.425 245.113 261.295 246.85 260.799 248.744Z" fill="black"/>
<path d="M262.21 215.934C262.151 216.814 262.098 217.695 262.045 218.569C261.897 221.247 261.797 223.901 261.732 226.464C261.437 238.33 261.915 248.119 261.915 248.119C261.915 248.119 252.765 242.453 243.025 247.208L242.045 228.006V227.672L241.047 219.274L237.812 192.147C237.812 192.147 231.714 154.496 229.843 153.081C227.971 151.666 243.715 121.199 243.715 121.199L251.785 127.982L256.803 162.797V180.609C256.803 180.609 263.296 199.944 262.21 215.934Z" fill="#67647E"/>
<path opacity="0.1" d="M143.159 96.1009L141.27 99.957C138.998 103.643 135.556 107.991 135.556 107.991C135.556 107.991 122.132 101.639 122.132 101.36C122.132 101.08 126.205 94.4794 129.517 89.2751C130.538 88.0606 131.158 87.3926 131.158 87.3926C127.221 97.4126 143.159 96.1009 143.159 96.1009Z" fill="black"/>
<path d="M154.576 94.3703L149.063 97.2123C149.063 97.2123 142.274 106.625 140.308 107.639C138.342 108.653 137.357 108.55 137.357 108.55L143.159 96.7083C143.159 96.7083 127.221 98.02 131.158 88C131.158 88 113.348 108.04 111.382 116.141C111.382 116.141 101.542 132.938 103.903 141.24C106.264 149.541 115.81 151.156 122.699 148.63C129.588 146.104 150.739 134.966 150.739 134.966L154.576 94.3703Z" fill="#67647E"/>
<path opacity="0.1" d="M134.8 114.112C134.8 114.112 119.942 131.219 121.123 133.545C122.303 135.871 134.015 117.556 134.8 114.112Z" fill="black"/>
<path opacity="0.2" d="M201.849 68.0628C201.849 68.0628 222.759 61.5832 234.565 84.9632C246.372 108.343 246.767 109.965 246.177 111.076C245.587 112.187 222.664 106.017 221.383 108.75C220.102 111.483 234.37 122.717 234.37 122.717L179.081 165.834L202.31 115.041C203.872 111.483 205.955 108.192 208.485 105.282C212.304 100.886 217.529 94.1512 215.681 92.0743C214.052 90.2525 211.442 85.4976 207.924 80.0261C205.344 76.012 201.247 71.4878 201.849 68.0628Z" fill="black"/>
<path d="M201.259 67.4559C201.259 67.4559 222.168 60.9763 233.975 84.3563C245.781 107.736 246.177 109.358 245.587 110.469C244.996 111.58 222.074 105.41 220.793 108.143C219.512 110.876 233.78 122.11 233.78 122.11L179.081 165.834L201.72 114.434C203.282 110.876 205.364 107.585 207.894 104.676C211.714 100.279 216.938 93.5443 215.09 91.4674C213.461 89.6456 210.852 84.8907 207.334 79.4191C204.754 75.4051 200.657 70.8809 201.259 67.4559Z" fill="#67647E"/>
<path opacity="0.1" d="M201.259 67.4559C201.259 67.4559 222.168 60.9763 233.975 84.3563C245.781 107.736 246.177 109.358 245.587 110.469C244.996 111.58 222.074 105.41 220.793 108.143C219.512 110.876 233.78 122.11 233.78 122.11L179.081 165.834L202.806 111.963C203.724 109.869 204.968 107.943 206.489 106.261C210.226 102.119 217.18 93.8175 215.09 91.4674C213.461 89.6456 210.852 84.8907 207.334 79.4191C204.754 75.4051 200.657 70.8809 201.259 67.4559Z" fill="black"/>
<path d="M205.539 174.633C203.149 174.633 201.212 172.64 201.212 170.182C201.212 167.723 203.149 165.73 205.539 165.73C207.929 165.73 209.866 167.723 209.866 170.182C209.866 172.64 207.929 174.633 205.539 174.633Z" fill="#444053"/>
<path d="M205.539 202.264C203.149 202.264 201.212 200.271 201.212 197.813C201.212 195.354 203.149 193.361 205.539 193.361C207.929 193.361 209.866 195.354 209.866 197.813C209.866 200.271 207.929 202.264 205.539 202.264Z" fill="#444053"/>
<path d="M261.732 226.464C259.241 227.071 247.428 226.798 242.056 228.006V227.672L241.059 219.274C247.116 218.496 260.28 217.021 262.063 218.569C264.371 220.591 264.701 225.765 261.732 226.464Z" fill="#67647E"/>
<path opacity="0.1" d="M261.732 227.071C259.241 227.678 247.428 227.405 242.056 228.614V228.28L241.059 219.881C247.116 219.104 260.28 217.628 262.063 219.177C264.371 221.199 264.701 226.373 261.732 227.071Z" fill="black"/>
<path opacity="0.1" d="M261.732 226.464C259.241 227.071 247.428 226.798 242.056 228.006V227.672L241.059 219.274C247.116 218.496 260.28 217.021 262.063 218.569C264.371 220.591 264.701 225.765 261.732 226.464Z" fill="black"/>
<path d="M259.158 225.091C257.717 225.091 256.549 223.89 256.549 222.407C256.549 220.925 257.717 219.723 259.158 219.723C260.599 219.723 261.767 220.925 261.767 222.407C261.767 223.89 260.599 225.091 259.158 225.091Z" fill="#444053"/>
<path opacity="0.1" d="M209.866 233.138L220.887 271.803C220.887 271.803 223.839 273.218 223.839 270.691C223.839 268.165 209.866 233.138 209.866 233.138Z" fill="white"/>
<path opacity="0.1" d="M205.639 75.5933C204.943 76.1678 204.216 76.7011 203.461 77.1905C199.713 79.6195 196.377 82.9231 191.596 82.9231C188.943 82.9271 186.309 82.4819 183.797 81.6053C181.542 72.5873 178.974 64.8264 178.974 64.8264C178.974 64.8264 207.829 37.0559 205.734 59.7618C204.996 67.7656 204.535 71.5732 205.639 75.5933Z" fill="black"/>
<path d="M215.834 56.7737C215.834 61.7053 214.413 66.5261 211.749 70.6266C209.086 74.7271 205.3 77.923 200.871 79.8103C196.442 81.6975 191.569 82.1913 186.867 81.2292C182.165 80.2671 177.846 77.8923 174.456 74.4051C171.066 70.9179 168.758 66.475 167.823 61.6382C166.887 56.8014 167.367 51.7879 169.202 47.2317C171.037 42.6755 174.143 38.7812 178.129 36.0414C182.115 33.3015 186.802 31.8391 191.596 31.8391C194.783 31.8239 197.941 32.4584 200.889 33.7061C203.836 34.9537 206.514 36.7898 208.768 39.1082C211.022 41.4267 212.807 44.1815 214.019 47.2136C215.232 50.2457 215.849 53.495 215.834 56.7737Z" fill="#CC9C8D"/>
<path d="M177.859 77.6459C177.636 78.2164 177.238 78.6962 176.725 79.0123L172.876 81.4414L165.68 85.9413L154.293 93.0585C154.025 93.2245 153.754 93.3763 153.478 93.514C152.143 94.2116 150.671 94.5853 149.174 94.6063C147.677 94.6274 146.195 94.2952 144.842 93.6354C143.82 93.1625 142.922 92.447 142.221 91.5475C141.52 90.6481 141.036 89.5905 140.81 88.4615C140.507 86.8898 140.635 85.2624 141.179 83.761C141.723 82.2597 142.662 80.9436 143.891 79.9596C143.953 79.9053 144.026 79.8659 144.104 79.8443C146.528 79.1446 148.808 77.9986 150.834 76.4618L158 71.3607L164.399 65.3426L167.634 63.0411C168.108 62.703 168.667 62.5119 169.243 62.4903C169.82 62.4688 170.39 62.6178 170.887 62.9196C174.205 64.8932 180.81 69.97 177.859 77.6459Z" fill="#E1E7EF"/>
<path d="M172.876 81.4046L165.68 85.9045C164.181 79.6861 160.368 75.2955 157.056 71.9798L164.399 65.2998C169.984 68.1479 172.203 77.6456 172.876 81.4046Z" fill="#A36468"/>
<path opacity="0.1" d="M153.496 93.4771C152.161 94.1748 150.689 94.5485 149.192 94.5695C147.694 94.5906 146.213 94.2584 144.86 93.5986C143.838 93.1257 142.939 92.4102 142.238 91.5107C141.538 90.6113 141.054 89.5536 140.828 88.4246C140.525 86.853 140.652 85.2256 141.196 83.7242C141.741 82.2229 142.68 80.9068 143.909 79.9229C145.696 80.7011 147.351 81.7693 148.809 83.0867C150.843 84.8988 152.317 87.2845 153.047 89.9489C153.337 91.1017 153.487 92.2866 153.496 93.4771Z" fill="black"/>
<path opacity="0.1" d="M215.834 56.7737C215.839 60.4052 215.069 63.9935 213.579 67.2856C212.117 68.7834 211.003 70.602 210.321 72.6053C208.68 74.6579 208.036 75.8178 205.846 77.2388C204.966 76.2854 202.983 75.7085 202.623 74.4757C201.708 71.2997 202.227 67.905 202.275 64.5954C202.275 63.1258 202.074 61.389 200.816 60.6846C199.772 60.0773 198.455 60.5145 197.428 61.1096C196.401 61.7048 195.38 62.476 194.199 62.6157C192.428 62.8221 190.81 61.5408 189.819 60.0348C188.827 58.5287 188.254 56.7676 187.316 55.2252C186.076 53.1908 184.246 51.6301 182.446 50.112C180.385 48.363 178.384 46.4258 176.188 44.859C174.878 43.9178 173.307 43.4805 172.015 42.5332L171.808 42.3753C174.779 38.0548 179.01 34.8189 183.887 33.1358C188.765 31.4527 194.036 31.4098 198.939 33.0132C203.842 34.6167 208.122 37.7833 211.159 42.0549C214.196 46.3264 215.834 51.4814 215.834 56.7737Z" fill="black"/>
<path d="M168.077 29.2096C168.591 25.7117 171.406 22.4264 174.842 22.3656C177.682 22.317 180.102 24.2967 182.617 25.651C185.192 27.0162 188.029 27.7787 190.924 27.8837C193.82 27.9887 196.702 27.4336 199.364 26.2582C200.905 25.5599 202.475 24.6307 204.158 24.7765C205.84 24.9222 207.18 26.0518 208.349 27.2056C211.108 30.0182 213.271 33.3886 214.701 37.1041C215.12 38.1972 215.504 39.3571 216.318 40.183C216.944 40.7115 217.621 41.1733 218.337 41.5615C219.571 42.4043 220.63 43.4922 221.45 44.7613C222.27 46.0303 222.835 47.4551 223.113 48.952C223.645 51.9624 223.345 55.0661 222.245 57.9092C221.58 59.8589 220.497 61.6294 219.075 63.0893C218.001 64.1277 216.714 64.9111 215.586 65.8766C213.75 67.4843 212.35 69.5537 211.523 71.8832C210.695 74.2128 210.468 76.7232 210.864 79.1698C207.723 79.9107 204.713 77.0201 203.78 73.844C202.847 70.668 203.384 67.2794 203.432 63.9637C203.432 62.4941 203.231 60.7634 201.973 60.059C200.929 59.4517 199.612 59.8889 198.585 60.4841C197.558 61.0792 196.542 61.8444 195.356 61.9901C193.585 62.1966 191.967 60.9152 190.976 59.4092C189.984 57.9032 189.417 56.1421 188.473 54.5996C187.239 52.5652 185.403 51.0046 183.603 49.4864C181.542 47.7374 179.541 45.8002 177.351 44.2335C176.035 43.2922 174.464 42.855 173.172 41.9076C169.287 39.0474 168.077 33.8005 168.077 29.2096Z" fill="#585268"/>
<path opacity="0.1" d="M186.843 70.899C186.843 70.899 186.513 70.978 185.94 71.1419C186.215 70.9793 186.527 70.8954 186.843 70.899Z" fill="black"/>
<g opacity="0.1">
<path opacity="0.1" d="M204.984 71.8825C204.069 68.7065 204.589 65.3119 204.636 62.0022C204.636 60.5326 204.435 58.7958 203.178 58.0914C202.133 57.4841 200.816 57.9214 199.789 58.5165C198.762 59.1116 197.747 59.8829 196.56 60.0225C194.789 60.229 193.172 58.9537 192.18 57.4416C191.188 55.9295 190.621 54.1745 189.677 52.632C188.443 50.5977 186.607 49.037 184.807 47.5188C182.747 45.7759 180.745 43.8327 178.555 42.2659C177.239 41.3246 175.669 40.8874 174.376 39.9401C170.468 37.0616 169.258 31.8148 169.258 27.2299C169.389 26.3507 169.654 25.4983 170.043 24.7036C169.002 25.938 168.321 27.4492 168.077 29.0638C168.077 33.6487 169.258 38.8955 173.195 41.774C174.488 42.7214 176.058 43.1586 177.375 44.0999C179.565 45.6666 181.566 47.6099 183.626 49.3528C185.427 50.8709 187.263 52.4316 188.496 54.466C189.441 56.0085 190.002 57.7696 190.999 59.2756C191.997 60.7816 193.62 62.063 195.38 61.8565C196.56 61.7168 197.564 60.9395 198.609 60.3505C199.653 59.7614 200.97 59.3424 201.997 59.9254C203.254 60.6298 203.479 62.3545 203.455 63.8362C203.408 67.1458 202.865 70.5162 203.803 73.7165C204.742 76.9168 207.735 79.7892 210.887 79.0362C210.788 78.4663 210.727 77.8901 210.704 77.3116C208.077 77.0808 205.769 74.6092 204.984 71.8825Z" fill="black"/>
<path opacity="0.1" d="M220.256 61.1215C219.181 62.1599 217.895 62.9433 216.767 63.9089C215.526 64.9849 214.484 66.2831 213.691 67.7407C214.254 67.0052 214.889 66.3316 215.586 65.7307C216.72 64.7651 218.001 63.9817 219.075 62.9433C219.933 62.0956 220.658 61.1164 221.224 60.0405C220.925 60.4223 220.601 60.7834 220.256 61.1215Z" fill="black"/>
</g>
<path opacity="0.1" d="M187.646 277.894C187.215 279.211 186.601 280.499 186.519 281.89C186.377 284.252 187.782 286.456 187.882 288.825C188.001 291.582 186.371 294.053 184.813 296.294C186.66 296.294 188.679 295.638 189.618 294.005C189.939 293.376 190.172 292.703 190.309 292.007C191.979 285.151 193.603 277.651 190.698 271.25C190.253 270.143 189.601 269.136 188.78 268.287C188.29 271.517 188.703 274.693 187.646 277.894Z" fill="black"/>
<path opacity="0.1" d="M141.471 229.506L136.566 222.699C135.385 221.053 134.163 219.34 133.738 217.342C133.278 215.15 133.815 212.879 133.886 210.662C133.886 210.413 133.886 210.158 133.886 209.903C133.952 209.757 134.027 209.615 134.11 209.478C134.736 208.422 135.426 206.314 136.152 203.497C136.868 204.228 137.423 205.108 137.782 206.077C140.066 211.81 137.953 218.539 139.842 224.417C140.385 226.105 141.27 227.721 141.471 229.506Z" fill="black"/>
<path opacity="0.1" d="M153.962 435.578C156.386 437.364 159.154 438.597 162.079 439.193C165.004 439.789 168.019 439.734 170.922 439.033" fill="black"/>
<path opacity="0.1" d="M194.606 436.58C195.847 437.776 197.314 438.697 198.915 439.287C200.516 439.877 202.218 440.122 203.915 440.008C205.612 439.895 207.268 439.424 208.781 438.625C210.294 437.826 211.632 436.717 212.711 435.365" fill="black"/>
<path opacity="0.1" d="M168.703 345.034C166.349 345.592 163.882 345.351 161.673 344.346C159.464 343.341 157.63 341.626 156.448 339.459" fill="black"/>
<path opacity="0.1" d="M196.684 360.38C200.424 360.661 204.145 359.611 207.221 357.404L196.684 360.38Z" fill="black"/>
<path opacity="0.1" d="M177.587 397.071C174.441 398.389 171.637 400.435 168.573 401.929C165.509 403.423 161.961 404.407 158.715 403.362" fill="black"/>
<path d="M347.518 406.076C319.766 406.076 297.269 399.402 297.269 391.168C297.269 382.934 319.766 376.259 347.518 376.259C375.269 376.259 397.766 382.934 397.766 391.168C397.766 399.402 375.269 406.076 347.518 406.076Z" fill="#5F5D7E"/>
<path opacity="0.1" d="M347.518 389.346C341.966 389.346 337.465 388.011 337.465 386.364C337.465 384.718 341.966 383.383 347.518 383.383C353.07 383.383 357.571 384.718 357.571 386.364C357.571 388.011 353.07 389.346 347.518 389.346Z" fill="black"/>
<path d="M342.778 307.723H353.108V386.364H342.778V307.723Z" fill="#5F5D7E"/>
<path opacity="0.1" d="M342.778 311.615V320.724C344.844 320.069 349.56 317.305 353.108 315.131V307.723H350.954L342.778 311.615Z" fill="black"/>
<path d="M367.117 273.485C367.117 273.485 333.008 264.455 324.519 257.696C316.03 250.937 282.694 282.746 287.098 294.739C291.502 306.733 307.535 315.435 307.535 315.435C307.535 315.435 351.88 322.856 359.425 307.377C366.969 291.897 367.117 273.485 367.117 273.485Z" fill="#474157"/>
<path opacity="0.1" d="M367.117 273.485C367.117 273.485 333.008 264.455 324.519 257.696C316.03 250.937 282.694 282.746 287.098 294.739C291.502 306.733 307.535 315.435 307.535 315.435C307.535 315.435 351.88 322.856 359.425 307.377C366.969 291.897 367.117 273.485 367.117 273.485Z" fill="black"/>
<path d="M370.068 269.841C370.068 269.841 335.959 260.811 327.47 254.052C318.982 247.293 285.646 279.102 290.05 291.096C294.454 303.089 310.487 311.792 310.487 311.792C310.487 311.792 354.832 319.213 362.376 303.733C369.921 288.254 370.068 269.841 370.068 269.841Z" fill="#474157"/>
<path opacity="0.1" d="M299.961 207.954C300.091 207.954 300.215 207.924 300.339 207.9C300.211 207.886 300.081 207.904 299.961 207.954Z" fill="black"/>
<path d="M401.013 242.951C404.419 242.095 413.811 241.306 418.28 256.724C419.32 260.306 420.645 263.793 422.241 267.151C426.533 276.206 432.064 294.818 407.713 298.918L349.271 312.581C349.271 312.581 317.984 316.528 315.918 315.01C313.852 313.492 314.147 310.152 314.147 310.152C314.147 310.152 348.681 310.152 355.47 299.221C362.258 288.29 362.553 273.412 362.553 273.412C362.553 273.412 361.703 250.439 397.383 243.765C398.587 243.54 399.803 243.255 401.013 242.951Z" fill="#474157"/>
<path opacity="0.1" d="M401.013 243.054C404.419 242.198 413.811 241.409 418.28 256.827C419.321 260.41 420.646 263.9 422.241 267.26C426.533 276.309 432.064 294.928 407.713 299.027L349.271 312.69C349.271 312.69 317.984 316.637 315.918 315.119C313.852 313.601 314.147 310.261 314.147 310.261C314.147 310.261 348.681 310.261 355.47 299.33C362.258 288.399 362.553 273.521 362.553 273.521C362.553 273.521 361.703 250.548 397.383 243.874C398.587 243.643 399.803 243.358 401.013 243.054Z" fill="black"/>
<path d="M278.503 227.241C278.841 225.018 279.952 222.997 281.63 221.553C283.307 220.109 285.437 219.34 287.624 219.389C295.127 219.535 316.55 220.47 329.608 226.409C332.476 227.715 335.351 228.984 338.303 230.053C340.971 231.03 344.153 232.591 345.729 234.832C347.305 237.073 384.395 266.41 330.971 294.648C330.971 294.648 302.34 303.035 291.124 283.359C291.124 283.359 283.155 262.22 283.745 254.902C284.336 247.585 278.432 227.848 278.432 227.848C278.432 227.848 278.444 227.642 278.503 227.241Z" fill="#474157"/>
<path opacity="0.1" d="M278.503 232.561C279.176 228.31 283.108 225.237 287.624 225.316C296.03 225.462 321.904 226.53 333.923 233.982C333.923 233.982 343.073 239.587 345.729 239.587C348.386 239.587 384.395 268.736 330.971 294.806C330.971 294.806 302.34 302.543 291.124 284.379C291.124 284.379 283.155 264.868 283.745 258.115C284.335 251.362 278.432 233.138 278.432 233.138C278.432 233.138 278.444 232.925 278.503 232.561Z" fill="black"/>
<path d="M307.063 294.667H316.508V315.356H307.063V294.667Z" fill="#5F5D7E"/>
<defs>
<linearGradient id="paint0_linear_39_7" x1="330" y1="0" x2="330" y2="465" gradientUnits="userSpaceOnUse">
<stop stop-color="white"/>
<stop offset="1" stop-color="white" stop-opacity="0"/>
</linearGradient>
<linearGradient id="paint1_linear_39_7" x1="330.005" y1="0.00830078" x2="330.005" y2="417.026" gradientUnits="userSpaceOnUse">
<stop stop-color="#A30DBC"/>
<stop offset="1" stop-color="#D92A2A" stop-opacity="0"/>
</linearGradient>
<linearGradient id="paint2_linear_39_7" x1="186.932" y1="458.338" x2="186.932" y2="20.4588" gradientUnits="userSpaceOnUse">
<stop stop-color="#808080" stop-opacity="0.25"/>
<stop offset="0.54" stop-color="#808080" stop-opacity="0.12"/>
<stop offset="1" stop-color="#808080" stop-opacity="0.1"/>
</linearGradient>
</defs>
</svg>
