<svg width="554" height="406" viewBox="0 0 554 406" fill="none" xmlns="http://www.w3.org/2000/svg">
<path d="M230.859 270.851L240.011 281.366L238.609 282.525L234.459 277.759L228.988 282.283L233.137 287.05L231.735 288.21L222.582 277.696L223.985 276.536L228.003 281.152L233.474 276.627L229.456 272.011L230.859 270.851ZM239.865 263.403L240.837 264.519L237.909 266.941L246.09 276.339L244.687 277.499L236.506 268.101L233.562 270.535L232.591 269.419L239.865 263.403ZM252.554 253.039L261.641 263.478L260.239 264.638L253.463 256.854L256.694 267.57L255.707 268.385L245.358 263.531L252.147 271.33L250.745 272.489L241.658 262.051L243.168 260.801L254.625 266.167L251.059 254.276L252.554 253.039ZM264.451 259.235L268.211 256.125L269.183 257.241L264.02 261.511L254.867 250.997L256.27 249.837L264.451 259.235Z" fill="black"/>
<path d="M243.403 351.323C242.571 350.956 241.728 350.84 240.874 350.975C240.011 351.101 239.205 351.474 238.455 352.094C237.705 352.714 237.175 353.446 236.867 354.289C236.56 355.114 236.507 355.988 236.709 356.91C236.913 357.814 237.374 358.678 238.092 359.503C238.81 360.328 239.609 360.911 240.491 361.255C241.383 361.589 242.276 361.681 243.17 361.53C244.065 361.361 244.888 360.966 245.638 360.345C246.686 359.479 247.282 358.458 247.426 357.284C247.57 356.11 247.243 354.953 246.446 353.813L242.161 357.357L241.19 356.241L246.969 351.461L247.888 352.517C248.559 353.45 248.973 354.474 249.131 355.588C249.28 356.693 249.153 357.776 248.75 358.835C248.338 359.885 247.66 360.801 246.714 361.582C245.718 362.407 244.611 362.932 243.395 363.16C242.171 363.377 240.962 363.278 239.77 362.862C238.589 362.439 237.551 361.714 236.658 360.688C235.765 359.662 235.201 358.547 234.964 357.341C234.729 356.117 234.826 354.939 235.254 353.807C235.673 352.664 236.381 351.681 237.378 350.857C238.518 349.914 239.766 349.358 241.121 349.188C242.486 349.011 243.807 349.259 245.083 349.933L243.403 351.323ZM246.121 345.391C245.853 345.612 245.549 345.708 245.206 345.68C244.864 345.652 244.579 345.507 244.351 345.246C244.123 344.984 244.023 344.687 244.051 344.353C244.078 344.019 244.225 343.741 244.492 343.52C244.749 343.308 245.044 343.22 245.376 343.257C245.719 343.285 246.004 343.429 246.231 343.691C246.459 343.952 246.559 344.25 246.532 344.584C246.514 344.91 246.378 345.179 246.121 345.391ZM247.968 346.173L255.164 354.439L253.761 355.599L246.565 347.333L247.968 346.173ZM253.054 343.913L257.295 348.785C257.645 349.187 257.982 349.402 258.306 349.428C258.62 349.445 258.993 349.274 259.425 348.918L260.458 348.064L261.469 349.225L260.205 350.27C259.424 350.916 258.685 351.224 257.988 351.195C257.291 351.166 256.593 350.749 255.893 349.945L251.651 345.072L250.557 345.977L249.572 344.846L250.666 343.941L248.854 341.859L250.256 340.699L252.069 342.781L254.273 340.959L255.258 342.09L253.054 343.913Z" fill="black"/>
<path d="M19.2104 390.704L13.6305 393.119L13.8879 396.385L12.1259 397.148L11.0051 382.533L12.9323 381.699L23.2855 392.318L21.5234 393.08L19.2104 390.704ZM18.1195 389.564L12.8882 384.158L13.4942 391.566L18.1195 389.564ZM22.3888 386.692C21.9244 385.673 21.7261 384.691 21.7939 383.747C21.8562 382.79 22.1516 381.943 22.68 381.206C23.2207 380.464 23.9438 379.896 24.8493 379.505C25.6325 379.166 26.4435 379.032 27.2823 379.105C28.1156 379.166 28.8424 379.411 29.4626 379.839L27.058 374.561L28.7466 373.83L34.8825 387.299L33.1938 388.029L32.3398 386.155C32.2803 386.892 32.0147 387.596 31.543 388.265C31.0659 388.921 30.3929 389.438 29.5241 389.814C28.6309 390.2 27.7176 390.334 26.7844 390.215C25.8635 390.091 25.0153 389.724 24.24 389.116C23.4646 388.507 22.8476 387.699 22.3888 386.692ZM30.9136 383.024C30.5709 382.272 30.1194 381.683 29.5592 381.257C28.999 380.832 28.3895 380.587 27.7307 380.524C27.0786 380.443 26.4405 380.537 25.8164 380.807C25.1924 381.077 24.6897 381.469 24.3084 381.983C23.9272 382.497 23.7107 383.099 23.6591 383.789C23.6075 384.48 23.753 385.201 24.0957 385.953C24.444 386.718 24.901 387.319 25.4667 387.757C26.0269 388.183 26.633 388.436 27.2852 388.517C27.9318 388.586 28.5671 388.485 29.1912 388.215C29.8152 387.945 30.3179 387.553 30.6991 387.039C31.0871 386.508 31.3069 385.897 31.3585 385.207C31.4046 384.504 31.2563 383.777 30.9136 383.024ZM42.1664 384.342C41.2242 384.75 40.271 384.908 39.3066 384.817C38.3545 384.721 37.4812 384.38 36.6869 383.794C35.8994 383.191 35.2706 382.373 34.8008 381.342C34.3364 380.323 34.1476 379.33 34.2344 378.362C34.3278 377.378 34.666 376.512 35.2489 375.766C35.8264 375.008 36.5923 374.422 37.5467 374.009C38.5012 373.596 39.4606 373.435 40.425 373.526C41.3838 373.605 42.2604 373.937 43.0547 374.523C43.8612 375.104 44.4994 375.91 44.9692 376.941C45.4391 377.972 45.6212 378.983 45.5155 379.973C45.4166 380.945 45.0723 381.813 44.4826 382.577C43.8929 383.341 43.1209 383.929 42.1664 384.342ZM41.5031 382.886C42.1027 382.627 42.602 382.243 43.001 381.737C43.4001 381.23 43.6315 380.629 43.6954 379.933C43.7715 379.232 43.6271 378.481 43.2623 377.68C42.8974 376.879 42.4288 376.268 41.8564 375.848C41.2839 375.427 40.68 375.195 40.0444 375.15C39.4033 375.094 38.783 375.195 38.1834 375.455C37.5716 375.72 37.0723 376.103 36.6855 376.604C36.3054 377.088 36.0896 377.676 36.038 378.366C35.9863 379.057 36.1429 379.802 36.5078 380.603C36.8781 381.416 37.3373 382.038 37.8852 382.469C38.4454 382.895 39.0399 383.139 39.6688 383.201C40.2921 383.25 40.9035 383.146 41.5031 382.886ZM47.4177 372.155C47.4895 371.413 47.7701 370.71 48.2595 370.048C48.7489 369.386 49.4157 368.872 50.2601 368.507C51.1656 368.115 52.076 367.975 52.9914 368.087C53.9069 368.199 54.7495 368.554 55.5193 369.15C56.2836 369.734 56.8979 370.536 57.3622 371.555C57.8211 372.563 58.0221 373.55 57.9654 374.519C57.9086 375.488 57.6127 376.35 57.0775 377.104C56.5545 377.853 55.8464 378.421 54.9532 378.808C54.0844 379.184 53.2339 379.327 52.4018 379.237C51.5819 379.141 50.8741 378.874 50.2784 378.434L51.1159 380.273L49.4456 380.996L43.3097 367.527L44.98 366.805L47.4177 372.155ZM55.6553 372.294C55.3125 371.542 54.8611 370.953 54.3009 370.527C53.7407 370.101 53.1312 369.857 52.4724 369.793C51.8258 369.725 51.1904 369.825 50.5664 370.095C49.9545 370.36 49.4547 370.758 49.0667 371.289C48.6854 371.803 48.4656 372.414 48.4073 373.122C48.3556 373.812 48.4984 374.527 48.8356 375.268C49.1784 376.02 49.6326 376.615 50.1983 377.053C50.7707 377.473 51.383 377.724 52.0351 377.805C52.694 377.868 53.3293 377.768 53.9411 377.503C54.5652 377.233 55.0678 376.841 55.4491 376.327C55.8371 375.796 56.0569 375.185 56.1085 374.495C56.1546 373.792 56.0035 373.059 55.6553 372.294ZM68.5806 366.286C68.7243 366.602 68.858 366.943 68.9815 367.311L60.9422 370.79C61.4511 371.747 62.1387 372.372 63.0048 372.665C63.8776 372.941 64.7545 372.888 65.6355 372.507C66.3575 372.194 66.8824 371.771 67.2104 371.237C67.5451 370.685 67.6832 370.088 67.6247 369.445L69.4234 368.667C69.5909 369.742 69.4091 370.757 68.8778 371.714C68.3411 372.658 67.4732 373.389 66.274 373.908C65.3195 374.321 64.3663 374.48 63.4141 374.383C62.4742 374.282 61.6133 373.935 60.8312 373.344C60.0436 372.741 59.4149 371.924 58.945 370.892C58.4752 369.861 58.2714 368.867 58.3336 367.91C58.3959 366.954 58.7062 366.108 59.2647 365.372C59.8299 364.619 60.6019 364.031 61.5809 363.607C62.5353 363.194 63.4736 363.035 64.3957 363.129C65.3179 363.224 66.1405 363.551 66.8638 364.109C67.5937 364.651 68.166 365.376 68.5806 366.286ZM66.6977 366.687C66.4102 366.056 66.0235 365.577 65.5376 365.25C65.0461 364.911 64.5031 364.732 63.9086 364.713C63.3208 364.677 62.7333 364.786 62.1459 365.04C61.3016 365.406 60.7013 365.985 60.3449 366.778C60.0008 367.566 60.0015 368.452 60.347 369.436L66.6977 366.687ZM82.5902 355.908C83.0711 356.964 83.1047 358.003 82.6912 359.024C82.2843 360.028 81.3345 360.853 79.8416 361.499L77.3821 362.564L79.795 367.86L78.1247 368.583L72.3454 355.898L76.4752 354.11C77.9191 353.485 79.1718 353.357 80.2333 353.726C81.307 354.089 82.0926 354.816 82.5902 355.908ZM79.2197 360.134C80.1497 359.732 80.7437 359.235 81.0018 358.644C81.2599 358.053 81.2204 357.387 80.8832 356.647C80.1701 355.082 78.908 354.691 77.097 355.475L74.6375 356.54L76.7602 361.199L79.2197 360.134ZM86.6183 354.906C86.6522 354.209 86.8664 353.586 87.2611 353.037C87.668 352.483 88.263 352.037 89.0462 351.698L89.8256 353.409L89.3851 353.599C87.5129 354.41 87.0356 355.822 87.9533 357.836L90.4242 363.26L88.7539 363.983L84.21 354.009L85.8803 353.286L86.6183 354.906ZM102.332 351.678C102.476 351.994 102.61 352.335 102.733 352.703L94.694 356.182C95.2029 357.139 95.8904 357.764 96.7565 358.057C97.6293 358.333 98.5063 358.28 99.3873 357.899C100.109 357.586 100.634 357.163 100.962 356.629C101.297 356.077 101.435 355.48 101.376 354.837L103.175 354.059C103.343 355.134 103.161 356.149 102.63 357.106C102.093 358.05 101.225 358.781 100.026 359.3C99.0713 359.713 98.118 359.872 97.1659 359.775C96.226 359.674 95.365 359.327 94.5829 358.736C93.7954 358.133 93.1666 357.316 92.6968 356.284C92.2269 355.253 92.0231 354.259 92.0854 353.302C92.1476 352.346 92.458 351.5 93.0165 350.764C93.5817 350.011 94.3537 349.423 95.3326 348.999C96.2871 348.586 97.2253 348.427 98.1475 348.522C99.0696 348.616 99.8923 348.943 100.616 349.502C101.345 350.043 101.918 350.768 102.332 351.678ZM100.449 352.079C100.162 351.448 99.7753 350.969 99.2893 350.642C98.7978 350.303 98.2548 350.124 97.6603 350.105C97.0726 350.069 96.485 350.178 95.8977 350.432C95.0533 350.798 94.453 351.377 94.0966 352.17C93.7525 352.958 93.7532 353.844 94.0987 354.828L100.449 352.079ZM114.452 340.702C115.235 340.363 116.007 340.225 116.768 340.288C117.524 340.339 118.226 340.609 118.873 341.098C119.521 341.588 120.055 342.294 120.475 343.216L123.154 349.094L121.502 349.809L118.931 344.167C118.478 343.172 117.882 342.523 117.142 342.218C116.409 341.896 115.621 341.918 114.777 342.283C113.908 342.659 113.344 343.237 113.084 344.018C112.819 344.786 112.924 345.692 113.399 346.736L115.903 352.232L114.252 352.947L111.681 347.305C111.228 346.31 110.631 345.66 109.892 345.356C109.159 345.034 108.371 345.055 107.527 345.421C106.658 345.797 106.094 346.375 105.834 347.156C105.569 347.924 105.674 348.83 106.149 349.874L108.653 355.37L106.983 356.093L102.439 346.119L104.109 345.396L104.765 346.834C104.857 346.17 105.115 345.578 105.539 345.061C105.975 344.538 106.529 344.131 107.202 343.84C108.046 343.475 108.878 343.34 109.698 343.435C110.518 343.531 111.253 343.873 111.903 344.464C111.864 343.638 112.08 342.891 112.552 342.222C113.023 341.553 113.657 341.046 114.452 340.702ZM121.474 335.942C121.156 336.079 120.837 336.087 120.517 335.964C120.198 335.841 119.966 335.621 119.822 335.306C119.678 334.99 119.667 334.676 119.788 334.362C119.908 334.048 120.128 333.823 120.446 333.685C120.752 333.552 121.059 333.55 121.366 333.679C121.686 333.802 121.918 334.021 122.061 334.337C122.205 334.652 122.217 334.967 122.096 335.28C121.987 335.589 121.78 335.809 121.474 335.942ZM123.02 337.212L127.564 347.186L125.893 347.909L121.35 337.935L123.02 337.212ZM137.142 336.613C137.285 336.928 137.419 337.27 137.543 337.637L129.503 341.117C130.012 342.073 130.7 342.698 131.566 342.991C132.439 343.267 133.316 343.215 134.197 342.833C134.919 342.521 135.443 342.097 135.771 341.563C136.106 341.012 136.244 340.415 136.186 339.772L137.984 338.993C138.152 340.068 137.97 341.084 137.439 342.04C136.902 342.984 136.034 343.716 134.835 344.235C133.881 344.648 132.927 344.806 131.975 344.71C131.035 344.608 130.174 344.262 129.392 343.671C128.605 343.067 127.976 342.25 127.506 341.219C127.036 340.187 126.832 339.193 126.895 338.237C126.957 337.28 127.267 336.434 127.826 335.698C128.391 334.945 129.163 334.357 130.142 333.933C131.096 333.52 132.035 333.361 132.957 333.456C133.879 333.551 134.702 333.877 135.425 334.436C136.155 334.977 136.727 335.703 137.142 336.613ZM135.259 337.013C134.971 336.383 134.585 335.903 134.099 335.576C133.607 335.237 133.064 335.058 132.47 335.039C131.882 335.003 131.294 335.112 130.707 335.367C129.863 335.732 129.262 336.311 128.906 337.105C128.562 337.893 128.563 338.779 128.908 339.762L135.259 337.013ZM139.657 331.951C139.691 331.253 139.905 330.63 140.3 330.082C140.706 329.528 141.302 329.082 142.085 328.743L142.864 330.453L142.424 330.644C140.551 331.454 140.074 332.867 140.992 334.881L143.463 340.304L141.792 341.027L137.249 331.054L138.919 330.331L139.657 331.951ZM155.371 328.723C155.515 329.038 155.648 329.38 155.772 329.748L147.732 333.227C148.241 334.183 148.929 334.808 149.795 335.102C150.668 335.378 151.545 335.325 152.426 334.944C153.148 334.631 153.673 334.208 154.001 333.674C154.335 333.122 154.473 332.525 154.415 331.882L156.214 331.103C156.381 332.179 156.199 333.194 155.668 334.15C155.131 335.094 154.263 335.826 153.064 336.345C152.11 336.758 151.156 336.916 150.204 336.82C149.264 336.719 148.403 336.372 147.621 335.781C146.834 335.178 146.205 334.36 145.735 333.329C145.265 332.298 145.062 331.304 145.124 330.347C145.186 329.39 145.496 328.544 146.055 327.809C146.62 327.056 147.392 326.467 148.371 326.044C149.326 325.631 150.264 325.471 151.186 325.566C152.108 325.661 152.931 325.988 153.654 326.546C154.384 327.087 154.956 327.813 155.371 328.723ZM153.488 329.124C153.2 328.493 152.814 328.014 152.328 327.687C151.836 327.347 151.293 327.168 150.699 327.15C150.111 327.114 149.523 327.223 148.936 327.477C148.092 327.842 147.491 328.422 147.135 329.215C146.791 330.003 146.792 330.889 147.137 331.872L153.488 329.124ZM169.38 318.345C169.861 319.401 169.895 320.439 169.481 321.461C169.075 322.465 168.125 323.29 166.632 323.936L164.172 325.001L166.585 330.297L164.915 331.02L159.136 318.334L163.265 316.547C164.709 315.922 165.962 315.794 167.024 316.162C168.097 316.526 168.883 317.253 169.38 318.345ZM166.01 322.571C166.94 322.169 167.534 321.672 167.792 321.081C168.05 320.49 168.011 319.824 167.673 319.084C166.96 317.519 165.698 317.128 163.887 317.912L161.428 318.976L163.55 323.636L166.01 322.571ZM173.409 317.343C173.442 316.645 173.657 316.022 174.051 315.474C174.458 314.92 175.053 314.474 175.836 314.135L176.616 315.846L176.175 316.036C174.303 316.846 173.826 318.259 174.743 320.273L177.214 325.697L175.544 326.419L171 316.446L172.671 315.723L173.409 317.343ZM186.853 321.721C185.91 322.129 184.957 322.287 183.993 322.196C183.041 322.1 182.167 321.759 181.373 321.173C180.586 320.57 179.957 319.752 179.487 318.721C179.023 317.702 178.834 316.709 178.921 315.741C179.014 314.757 179.352 313.891 179.935 313.145C180.513 312.387 181.279 311.801 182.233 311.388C183.187 310.975 184.147 310.814 185.111 310.905C186.07 310.984 186.947 311.316 187.741 311.902C188.547 312.483 189.186 313.289 189.655 314.32C190.125 315.351 190.307 316.362 190.202 317.352C190.103 318.324 189.758 319.192 189.169 319.956C188.579 320.72 187.807 321.308 186.853 321.721ZM186.189 320.265C186.789 320.006 187.288 319.622 187.687 319.116C188.086 318.609 188.318 318.008 188.382 317.312C188.458 316.611 188.313 315.86 187.948 315.059C187.584 314.258 187.115 313.647 186.543 313.227C185.97 312.806 185.366 312.574 184.731 312.53C184.09 312.473 183.469 312.574 182.87 312.834C182.258 313.099 181.759 313.482 181.372 313.983C180.992 314.467 180.776 315.055 180.724 315.745C180.673 316.436 180.829 317.181 181.194 317.982C181.564 318.795 182.024 319.417 182.571 319.848C183.132 320.274 183.726 320.518 184.355 320.58C184.978 320.629 185.59 320.525 186.189 320.265Z" fill="black"/>
<path d="M412.953 215.366L419.655 221.1C420.598 221.906 421.497 222.281 422.355 222.225C423.221 222.159 424.016 221.725 424.738 220.923C425.452 220.13 425.782 219.316 425.728 218.48C425.682 217.634 425.188 216.808 424.246 216.002L417.544 210.268L418.762 208.916L425.449 214.637C426.33 215.391 426.919 216.201 427.214 217.068C427.5 217.926 427.522 218.778 427.28 219.624C427.048 220.46 426.601 221.244 425.941 221.978C425.281 222.711 424.536 223.249 423.707 223.592C422.887 223.925 422.021 224.01 421.111 223.845C420.2 223.662 419.304 223.193 418.422 222.439L411.735 216.719L412.953 215.366ZM438.72 207.577L437.502 208.93L424.169 207.154L432.604 214.369L431.386 215.722L420.778 206.647L421.996 205.294L435.314 207.058L426.894 199.855L428.112 198.502L438.72 207.577ZM431.422 194.858L442.014 203.919L440.796 205.272L430.204 196.21L431.422 194.858ZM442.615 192.854L450.768 194.198L449.39 195.729L443.021 194.675L445.027 200.574L443.675 202.075L441.237 194.385L433.069 193.028L434.434 191.512L440.831 192.565L438.824 186.637L440.189 185.121L442.615 192.854Z" fill="black"/>
<path d="M508.279 45.8477L520.113 53.0239L519.134 54.558L510.31 49.207L516.659 58.4354L515.97 59.5144L504.643 58.0472L513.484 63.4086L512.505 64.9428L500.671 57.7665L501.726 56.1144L514.262 57.7305L507.235 47.483L508.279 45.8477ZM517.481 36.7822L527.714 50.7038L526.702 52.2885L523.35 47.7301L511.703 45.8351L512.79 44.1324L522.233 45.8372L516.47 38.3669L517.481 36.7822ZM530.335 37.2698C529.84 38.0453 529.259 38.6592 528.59 39.1114C527.918 39.5454 527.225 39.788 526.513 39.8392C525.789 39.8834 525.098 39.7141 524.441 39.3312L525.485 37.696C526.08 37.9785 526.696 38.0407 527.335 37.8824C527.969 37.7059 528.531 37.2356 529.018 36.4713C529.485 35.7408 529.668 35.057 529.569 34.4199C529.465 33.7647 529.123 33.2608 528.541 32.9082C528.085 32.6317 527.636 32.5306 527.193 32.605C526.75 32.6794 526.336 32.8572 525.951 33.1382C525.566 33.4192 525.087 33.8225 524.515 34.3482C523.814 34.9992 523.211 35.4985 522.704 35.8461C522.205 36.1825 521.631 36.3879 520.983 36.4623C520.33 36.5186 519.633 36.3221 518.892 35.8727C518.242 35.4787 517.771 34.9666 517.477 34.3364C517.183 33.7063 517.086 33.0161 517.186 32.2657C517.292 31.5042 517.589 30.7412 518.077 29.977C518.78 28.8756 519.634 28.1459 520.637 27.7878C521.648 27.4185 522.643 27.4689 523.624 27.939L522.548 29.6248C522.056 29.4045 521.507 29.3985 520.899 29.607C520.28 29.8085 519.752 30.252 519.314 30.9376C518.905 31.5782 518.743 32.2045 518.827 32.8165C518.899 33.4216 519.237 33.9074 519.842 34.2738C520.275 34.5365 520.704 34.6328 521.128 34.5627C521.559 34.4814 521.96 34.3115 522.331 34.0529C522.697 33.7762 523.176 33.3729 523.767 32.8429C524.479 32.1988 525.094 31.7064 525.612 31.3657C526.118 31.0181 526.701 30.8105 527.361 30.743C528.01 30.6686 528.71 30.8595 529.463 31.3158C530.044 31.6683 530.495 32.1519 530.814 32.7665C531.133 33.381 531.262 34.0829 531.201 34.8722C531.14 35.6614 530.852 36.4606 530.335 37.2698ZM542.426 22.9736L538.553 23.8754C538.347 24.5454 538.053 25.1782 537.673 25.7739C536.977 26.8641 536.086 27.7032 534.999 28.2912C533.901 28.8723 532.721 29.1469 531.46 29.1151C530.196 29.0652 528.982 28.6877 527.819 27.9825C526.656 27.2773 525.778 26.3863 525.184 25.3093C524.586 24.2141 524.318 23.0615 524.379 21.8512C524.428 20.6341 524.801 19.4805 525.497 18.3903C526.2 17.2889 527.101 16.4476 528.199 15.8665C529.286 15.2785 530.456 15.006 531.71 15.049C532.963 15.092 534.177 15.4696 535.351 16.1817C536.491 16.873 537.36 17.7425 537.956 18.7901C538.553 19.8377 538.837 20.9532 538.809 22.1366L543.696 20.9843L542.426 22.9736ZM528.82 26.4147C529.766 26.9885 530.716 27.3077 531.671 27.3724C532.634 27.4258 533.517 27.2442 534.32 26.8274C535.131 26.3993 535.798 25.7751 536.322 24.9546C536.846 24.1342 537.122 23.2805 537.15 22.3936C537.186 21.4955 536.963 20.6432 536.482 19.8367C536.007 19.0191 535.297 18.3233 534.351 17.7495C533.393 17.1688 532.439 16.8551 531.488 16.8086C530.533 16.744 529.654 16.92 528.85 17.3368C528.046 17.7536 527.379 18.3779 526.848 19.2095C526.317 20.0412 526.037 20.9005 526.009 21.7874C525.981 22.6743 526.203 23.5266 526.678 24.3443C527.148 25.1438 527.862 25.8339 528.82 26.4147ZM542.347 15.4412L544.973 11.3278L546.238 12.0952L542.634 17.7427L530.714 10.5147L531.693 8.98056L542.347 15.4412Z" fill="black"/>
<path d="M297.928 312.739C297.09 313.118 296.268 313.316 295.462 313.33C294.663 313.326 293.951 313.151 293.328 312.804C292.699 312.446 292.214 311.926 291.875 311.246L293.642 310.445C293.984 311.007 294.465 311.396 295.085 311.612C295.712 311.811 296.438 311.723 297.264 311.349C298.053 310.991 298.581 310.517 298.846 309.929C299.118 309.322 299.108 308.712 298.815 308.099C298.585 307.617 298.265 307.287 297.854 307.107C297.443 306.928 297 306.85 296.525 306.876C296.049 306.901 295.428 306.978 294.662 307.105C293.721 307.269 292.944 307.358 292.33 307.373C291.729 307.382 291.137 307.24 290.555 306.948C289.978 306.639 289.504 306.093 289.13 305.311C288.803 304.625 288.689 303.937 288.788 303.248C288.888 302.559 289.184 301.927 289.678 301.352C290.183 300.771 290.849 300.294 291.675 299.919C292.865 299.38 293.977 299.234 295.011 299.482C296.058 299.725 296.862 300.311 297.425 301.242L295.603 302.068C295.313 301.614 294.857 301.309 294.235 301.151C293.608 300.982 292.924 301.065 292.183 301.401C291.491 301.715 291.012 302.152 290.748 302.711C290.477 303.258 290.494 303.851 290.798 304.488C291.017 304.946 291.322 305.261 291.715 305.434C292.12 305.602 292.548 305.678 292.999 305.664C293.457 305.632 294.078 305.556 294.862 305.434C295.809 305.283 296.592 305.206 297.211 305.203C297.824 305.188 298.425 305.333 299.013 305.637C299.596 305.929 300.077 306.472 300.456 307.266C300.749 307.88 300.861 308.532 300.791 309.222C300.722 309.912 300.446 310.572 299.963 311.201C299.48 311.829 298.802 312.342 297.928 312.739ZM300.906 303.571C300.32 302.344 300.074 301.116 300.167 299.888C300.254 298.648 300.646 297.534 301.341 296.546C302.048 295.552 302.991 294.787 304.168 294.253C305.553 293.626 306.919 293.408 308.267 293.602C309.615 293.796 310.816 294.393 311.87 295.394L309.884 296.294C309.17 295.696 308.382 295.343 307.519 295.237C306.668 295.125 305.781 295.279 304.858 295.697C303.971 296.099 303.274 296.664 302.765 297.393C302.256 298.121 301.982 298.956 301.943 299.895C301.898 300.823 302.117 301.792 302.6 302.803C303.077 303.802 303.696 304.589 304.459 305.166C305.216 305.73 306.044 306.057 306.943 306.147C307.843 306.236 308.736 306.08 309.622 305.678C310.545 305.26 311.24 304.703 311.706 304.009C312.179 303.297 312.41 302.482 312.4 301.564L314.386 300.664C314.486 302.082 314.179 303.356 313.463 304.486C312.741 305.604 311.687 306.476 310.303 307.104C309.125 307.638 307.921 307.855 306.691 307.754C305.468 307.636 304.344 307.216 303.32 306.494C302.297 305.773 301.492 304.799 300.906 303.571ZM322.688 301.51C321.85 301.89 321.028 302.087 320.222 302.101C319.423 302.097 318.712 301.922 318.088 301.575C317.459 301.217 316.975 300.697 316.635 300.017L318.402 299.216C318.744 299.778 319.225 300.167 319.846 300.383C320.472 300.582 321.199 300.494 322.024 300.12C322.814 299.762 323.341 299.288 323.606 298.7C323.878 298.093 323.868 297.483 323.575 296.87C323.345 296.388 323.025 296.058 322.614 295.878C322.203 295.699 321.76 295.621 321.285 295.647C320.81 295.672 320.189 295.749 319.423 295.876C318.481 296.04 317.704 296.129 317.091 296.144C316.489 296.153 315.897 296.011 315.315 295.719C314.739 295.41 314.264 294.864 313.891 294.082C313.563 293.396 313.449 292.708 313.549 292.019C313.648 291.33 313.944 290.698 314.438 290.123C314.944 289.542 315.609 289.065 316.435 288.69C317.625 288.151 318.737 288.005 319.772 288.253C320.818 288.496 321.623 289.082 322.185 290.013L320.364 290.839C320.073 290.385 319.617 290.08 318.995 289.922C318.368 289.753 317.684 289.836 316.943 290.172C316.251 290.486 315.773 290.923 315.508 291.482C315.237 292.029 315.254 292.622 315.559 293.259C315.777 293.717 316.083 294.032 316.475 294.205C316.88 294.373 317.308 294.449 317.76 294.435C318.217 294.403 318.838 294.327 319.622 294.205C320.569 294.054 321.352 293.977 321.971 293.974C322.584 293.96 323.185 294.104 323.774 294.408C324.356 294.7 324.837 295.243 325.216 296.038C325.509 296.651 325.621 297.303 325.552 297.993C325.482 298.683 325.206 299.343 324.723 299.972C324.241 300.6 323.562 301.113 322.688 301.51ZM333.378 296.661C332.54 297.041 331.718 297.238 330.913 297.253C330.113 297.249 329.402 297.074 328.779 296.727C328.149 296.369 327.665 295.849 327.325 295.169L329.092 294.367C329.434 294.93 329.916 295.319 330.536 295.535C331.163 295.734 331.889 295.646 332.715 295.272C333.504 294.914 334.031 294.44 334.297 293.852C334.569 293.245 334.558 292.635 334.265 292.022C334.035 291.54 333.715 291.21 333.304 291.03C332.894 290.85 332.451 290.773 331.975 290.799C331.5 290.824 330.879 290.9 330.113 291.028C329.172 291.192 328.394 291.281 327.781 291.295C327.18 291.305 326.588 291.163 326.005 290.871C325.429 290.562 324.954 290.016 324.581 289.234C324.253 288.548 324.139 287.86 324.239 287.171C324.338 286.482 324.635 285.85 325.128 285.275C325.634 284.694 326.3 284.217 327.126 283.842C328.316 283.302 329.428 283.157 330.462 283.405C331.508 283.648 332.313 284.234 332.875 285.165L331.054 285.991C330.763 285.537 330.307 285.232 329.686 285.074C329.058 284.905 328.374 284.988 327.634 285.324C326.941 285.638 326.463 286.075 326.198 286.634C325.928 287.181 325.945 287.774 326.249 288.411C326.467 288.869 326.773 289.184 327.166 289.357C327.571 289.525 327.999 289.601 328.45 289.587C328.907 289.555 329.528 289.478 330.312 289.357C331.259 289.206 332.042 289.129 332.661 289.126C333.275 289.111 333.876 289.256 334.464 289.56C335.047 289.852 335.527 290.395 335.906 291.189C336.199 291.803 336.311 292.455 336.242 293.145C336.172 293.835 335.896 294.495 335.414 295.124C334.931 295.752 334.252 296.265 333.378 296.661Z" fill="black"/>
<path d="M441.076 128.256C439.967 127.468 439.156 126.516 438.643 125.4C438.119 124.275 437.922 123.114 438.053 121.915C438.192 120.705 438.649 119.583 439.423 118.547C440.334 117.33 441.427 116.48 442.703 115.997C443.98 115.514 445.323 115.454 446.732 115.818L445.427 117.564C444.51 117.387 443.648 117.461 442.839 117.785C442.038 118.099 441.334 118.662 440.728 119.474C440.145 120.253 439.806 121.084 439.713 121.966C439.619 122.848 439.783 123.708 440.204 124.547C440.615 125.378 441.277 126.118 442.19 126.767C443.092 127.407 444.017 127.795 444.965 127.929C445.903 128.055 446.788 127.94 447.621 127.584C448.453 127.227 449.161 126.659 449.744 125.879C450.351 125.068 450.69 124.246 450.763 123.415C450.833 122.565 450.641 121.742 450.188 120.946L451.493 119.2C452.269 120.389 452.616 121.649 452.535 122.981C452.443 124.306 451.942 125.577 451.032 126.794C450.257 127.83 449.306 128.601 448.178 129.108C447.047 129.596 445.858 129.773 444.61 129.639C443.363 129.505 442.184 129.044 441.076 128.256ZM455.537 105.212L458.017 107.906L459.669 105.695L460.974 106.622L459.117 109.105L461.863 112.11L460.821 113.503L458.075 110.498L455.56 113.862L458.306 116.867L457.264 118.26L454.518 115.255L452.637 117.77L451.333 116.843L453.417 114.056L450.938 111.363L449.081 113.845L447.777 112.919L449.837 110.164L447.091 107.158L448.133 105.765L450.879 108.77L453.394 105.407L450.648 102.401L451.69 101.008L454.436 104.013L456.101 101.787L457.405 102.714L455.537 105.212ZM454.495 106.606L451.98 109.969L454.459 112.663L456.975 109.299L454.495 106.606Z" fill="black"/>
<path d="M317.405 203.305C317.041 201.994 317.012 200.74 317.316 199.543C317.617 198.333 318.194 197.299 319.049 196.439C319.916 195.576 320.975 194.98 322.226 194.651C323.696 194.263 325.077 194.278 326.369 194.696C327.661 195.114 328.738 195.905 329.601 197.071L327.493 197.626C326.894 196.915 326.18 196.435 325.35 196.185C324.532 195.932 323.634 195.934 322.654 196.192C321.713 196.44 320.929 196.881 320.302 197.515C319.676 198.149 319.262 198.927 319.061 199.849C318.856 200.757 318.904 201.751 319.203 202.831C319.499 203.897 319.972 204.779 320.622 205.476C321.269 206.16 322.026 206.623 322.895 206.862C323.764 207.102 324.669 207.098 325.611 206.85C326.59 206.592 327.37 206.159 327.948 205.551C328.536 204.927 328.905 204.162 329.054 203.254L331.162 202.698C331.016 204.115 330.493 205.322 329.593 206.317C328.689 207.3 327.503 207.985 326.033 208.372C324.782 208.702 323.561 208.714 322.369 208.407C321.187 208.085 320.155 207.481 319.273 206.597C318.391 205.713 317.768 204.615 317.405 203.305ZM339.179 204.928C338.289 205.163 337.447 205.219 336.652 205.098C335.867 204.96 335.198 204.668 334.645 204.221C334.088 203.761 333.702 203.166 333.486 202.437L335.362 201.943C335.601 202.555 336.007 203.021 336.579 203.338C337.161 203.64 337.89 203.675 338.767 203.444C339.605 203.223 340.206 202.845 340.569 202.308C340.941 201.755 341.036 201.15 340.854 200.495C340.712 199.981 340.454 199.601 340.081 199.355C339.709 199.108 339.286 198.957 338.815 198.903C338.343 198.848 337.719 198.819 336.944 198.817C335.99 198.82 335.21 198.777 334.604 198.689C334.012 198.597 333.454 198.358 332.932 197.971C332.419 197.569 332.047 196.95 331.815 196.115C331.612 195.382 331.619 194.684 331.836 194.021C332.053 193.357 332.454 192.782 333.039 192.297C333.637 191.809 334.374 191.449 335.251 191.218C336.514 190.885 337.633 190.928 338.607 191.347C339.594 191.762 340.283 192.477 340.675 193.49L338.741 194C338.534 193.503 338.139 193.125 337.555 192.865C336.967 192.592 336.28 192.56 335.494 192.767C334.759 192.961 334.213 193.311 333.855 193.819C333.495 194.314 333.409 194.902 333.598 195.583C333.733 196.071 333.979 196.434 334.335 196.671C334.704 196.904 335.112 197.052 335.558 197.114C336.013 197.159 336.637 197.188 337.429 197.2C338.386 197.209 339.17 197.265 339.779 197.366C340.384 197.455 340.95 197.699 341.476 198.098C341.998 198.484 342.377 199.101 342.612 199.949C342.794 200.604 342.791 201.267 342.603 201.937C342.416 202.607 342.03 203.212 341.447 203.751C340.863 204.291 340.107 204.684 339.179 204.928ZM350.529 201.937C349.64 202.171 348.798 202.228 348.003 202.106C347.218 201.968 346.549 201.676 345.996 201.229C345.439 200.769 345.053 200.174 344.837 199.446L346.713 198.951C346.952 199.564 347.358 200.029 347.93 200.347C348.512 200.648 349.241 200.684 350.118 200.453C350.956 200.232 351.556 199.853 351.919 199.316C352.292 198.763 352.387 198.159 352.205 197.504C352.062 196.99 351.805 196.609 351.432 196.363C351.059 196.117 350.637 195.966 350.165 195.911C349.693 195.856 349.07 195.827 348.294 195.825C347.34 195.828 346.561 195.786 345.955 195.697C345.362 195.605 344.805 195.366 344.283 194.98C343.77 194.577 343.397 193.958 343.166 193.123C342.962 192.391 342.969 191.693 343.186 191.029C343.404 190.365 343.805 189.791 344.389 189.306C344.987 188.817 345.724 188.457 346.601 188.226C347.865 187.893 348.983 187.936 349.958 188.355C350.944 188.77 351.634 189.485 352.026 190.498L350.092 191.008C349.885 190.511 349.489 190.133 348.905 189.873C348.318 189.601 347.631 189.568 346.844 189.775C346.109 189.969 345.563 190.32 345.206 190.828C344.845 191.322 344.759 191.91 344.948 192.591C345.084 193.08 345.33 193.442 345.686 193.679C346.055 193.913 346.463 194.06 346.909 194.122C347.364 194.168 347.988 194.196 348.78 194.208C349.737 194.218 350.52 194.273 351.129 194.375C351.735 194.463 352.301 194.707 352.827 195.106C353.349 195.492 353.728 196.11 353.963 196.957C354.145 197.613 354.142 198.275 353.954 198.945C353.766 199.615 353.381 200.22 352.797 200.76C352.214 201.3 351.458 201.692 350.529 201.937Z" fill="black"/>
<path d="M374.863 314.139L379.664 328.113L378.017 329.416L364.968 321.973L366.489 320.769L377.619 327.284L373.357 315.331L374.863 314.139ZM389.415 312.869C389.637 313.135 389.856 313.43 390.072 313.751L383.204 319.189C383.948 319.977 384.777 320.4 385.693 320.458C386.61 320.496 387.445 320.218 388.198 319.622C388.814 319.133 389.211 318.59 389.388 317.99C389.568 317.372 389.544 316.762 389.319 316.158L390.856 314.941C391.3 315.933 391.391 316.958 391.128 318.016C390.856 319.064 390.208 319.994 389.183 320.805C388.368 321.45 387.487 321.851 386.54 322.005C385.604 322.152 384.679 322.042 383.767 321.676C382.846 321.3 382.023 320.677 381.298 319.806C380.572 318.935 380.114 318.032 379.923 317.095C379.732 316.158 379.81 315.263 380.158 314.41C380.507 313.538 381.1 312.771 381.936 312.109C382.751 311.463 383.618 311.066 384.535 310.918C385.453 310.77 386.335 310.87 387.181 311.22C388.03 311.551 388.774 312.101 389.415 312.869ZM387.697 313.744C387.254 313.212 386.753 312.851 386.197 312.662C385.632 312.464 385.06 312.432 384.48 312.569C383.901 312.687 383.361 312.944 382.859 313.342C382.138 313.913 381.709 314.626 381.572 315.483C381.446 316.331 381.68 317.183 382.272 318.04L387.697 313.744ZM391.487 304.547C392.229 303.959 393.01 303.605 393.828 303.484C394.657 303.354 395.408 303.423 396.081 303.689L394.801 302.152L396.244 301.01L403.414 309.614C404.054 310.382 404.455 311.195 404.615 312.054C404.785 312.924 404.696 313.775 404.351 314.61C404.016 315.436 403.435 316.176 402.61 316.83C401.481 317.724 400.322 318.208 399.134 318.282C397.946 318.355 396.909 317.995 396.022 317.201L397.433 316.084C398.016 316.472 398.682 316.625 399.429 316.543C400.185 316.472 400.908 316.163 401.598 315.617C402.382 314.996 402.819 314.25 402.909 313.38C403.01 312.501 402.697 311.627 401.972 310.756L400.499 308.989C400.627 309.704 400.55 310.445 400.269 311.211C399.988 311.978 399.477 312.655 398.734 313.243C397.971 313.847 397.123 314.213 396.188 314.341C395.264 314.46 394.347 314.328 393.437 313.944C392.526 313.559 391.717 312.942 391.008 312.092C390.291 311.232 389.842 310.338 389.659 309.411C389.468 308.474 389.532 307.583 389.85 306.736C390.178 305.881 390.724 305.151 391.487 304.547ZM398.297 306.347C397.767 305.712 397.176 305.262 396.522 304.998C395.868 304.734 395.214 304.656 394.559 304.767C393.907 304.858 393.314 305.115 392.781 305.537C392.248 305.959 391.864 306.467 391.63 307.06C391.396 307.654 391.344 308.29 391.476 308.968C391.607 309.646 391.937 310.302 392.467 310.937C393.004 311.583 393.605 312.042 394.267 312.317C394.921 312.581 395.574 312.667 396.227 312.576C396.871 312.474 397.459 312.212 397.992 311.79C398.525 311.368 398.909 310.86 399.143 310.267C399.379 309.655 399.432 309.01 399.3 308.332C399.161 307.643 398.826 306.982 398.297 306.347ZM401.605 303.702C400.888 302.842 400.438 301.948 400.255 301.021C400.065 300.084 400.128 299.193 400.446 298.346C400.774 297.491 401.32 296.761 402.083 296.157C402.836 295.561 403.622 295.202 404.44 295.081C405.259 294.96 406.005 295.033 406.678 295.299L405.397 293.762L406.84 292.62L413.857 301.039L412.414 302.182L411.108 300.615C411.236 301.33 411.154 302.075 410.862 302.849C410.573 303.605 410.057 304.277 409.315 304.865C408.552 305.469 407.708 305.831 406.784 305.951C405.86 306.07 404.943 305.938 404.033 305.554C403.123 305.169 402.313 304.552 401.605 303.702ZM408.893 297.957C408.364 297.322 407.772 296.872 407.118 296.608C406.464 296.344 405.81 296.267 405.155 296.377C404.503 296.468 403.91 296.725 403.377 297.147C402.844 297.569 402.46 298.077 402.226 298.67C401.992 299.264 401.941 299.9 402.072 300.578C402.203 301.256 402.534 301.912 403.063 302.547C403.601 303.193 404.201 303.652 404.863 303.927C405.517 304.191 406.171 304.278 406.823 304.186C407.467 304.084 408.056 303.822 408.589 303.4C409.122 302.978 409.505 302.47 409.74 301.877C409.976 301.265 410.028 300.62 409.897 299.942C409.757 299.253 409.422 298.592 408.893 297.957ZM419.425 296.86C418.767 297.381 418.087 297.742 417.385 297.94C416.674 298.129 416.005 298.148 415.378 297.999C414.741 297.84 414.194 297.516 413.736 297.029L415.21 295.862C415.602 296.249 416.086 296.435 416.664 296.42C417.252 296.396 417.838 296.153 418.424 295.689C418.967 295.259 419.298 294.802 419.415 294.318C419.532 293.834 419.441 293.413 419.143 293.054C418.835 292.686 418.442 292.547 417.962 292.638C417.474 292.718 416.807 292.948 415.962 293.329C415.188 293.67 414.528 293.92 413.984 294.079C413.442 294.219 412.888 294.241 412.322 294.145C411.758 294.031 411.25 293.702 410.797 293.159C410.439 292.729 410.241 292.231 410.203 291.666C410.166 291.101 410.302 290.525 410.612 289.939C410.914 289.344 411.373 288.802 411.99 288.313C412.941 287.56 413.906 287.187 414.884 287.195C415.862 287.203 416.713 287.6 417.438 288.386L416.011 289.516C415.613 289.1 415.135 288.891 414.579 288.89C414.033 288.88 413.483 289.095 412.929 289.533C412.416 289.939 412.098 290.369 411.974 290.824C411.851 291.28 411.934 291.681 412.224 292.03C412.454 292.306 412.735 292.466 413.067 292.51C413.4 292.535 413.75 292.496 414.115 292.394C414.483 292.273 414.968 292.084 415.57 291.828C416.323 291.504 416.962 291.271 417.485 291.128C418 290.976 418.526 290.95 419.062 291.053C419.609 291.147 420.101 291.446 420.538 291.95C420.922 292.41 421.137 292.929 421.183 293.504C421.229 294.08 421.102 294.666 420.8 295.262C420.5 295.839 420.042 296.372 419.425 296.86ZM429.635 275.974C430.378 276.865 430.683 277.856 430.551 278.947C430.421 280.019 429.718 281.06 428.443 282.07L426.341 283.733L430.068 288.204L428.641 289.334L419.716 278.626L423.244 275.832C424.477 274.856 425.656 274.407 426.78 274.486C427.915 274.556 428.867 275.052 429.635 275.974ZM427.482 280.917C428.277 280.288 428.721 279.656 428.816 279.02C428.91 278.384 428.697 277.754 428.177 277.129C427.075 275.808 425.751 275.759 424.204 276.984L422.103 278.648L425.381 282.581L427.482 280.917ZM433.271 273.963C433.12 273.283 433.164 272.627 433.402 271.997C433.65 271.358 434.109 270.774 434.778 270.244L435.982 271.688L435.606 271.986C434.006 273.253 433.915 274.736 435.332 276.436L439.148 281.015L437.721 282.144L430.704 273.725L432.131 272.595L433.271 273.963ZM447.433 274.684C446.628 275.321 445.747 275.721 444.79 275.884C443.843 276.039 442.908 275.938 441.986 275.58C441.065 275.204 440.242 274.581 439.516 273.71C438.799 272.85 438.355 271.943 438.185 270.989C438.017 270.017 438.117 269.096 438.486 268.227C438.846 267.347 439.433 266.584 440.248 265.939C441.064 265.293 441.95 264.889 442.908 264.726C443.856 264.553 444.792 264.645 445.715 265.002C446.648 265.352 447.477 265.961 448.203 266.832C448.928 267.703 449.37 268.628 449.528 269.608C449.687 270.57 449.582 271.495 449.212 272.383C448.841 273.271 448.249 274.038 447.433 274.684ZM446.409 273.455C446.921 273.049 447.304 272.551 447.557 271.959C447.81 271.368 447.876 270.729 447.755 270.043C447.645 269.348 447.308 268.663 446.745 267.987C446.181 267.311 445.567 266.845 444.903 266.589C444.238 266.333 443.593 266.266 442.966 266.388C442.33 266.5 441.757 266.759 441.244 267.165C440.722 267.579 440.339 268.077 440.096 268.66C439.856 269.225 439.801 269.846 439.932 270.524C440.063 271.202 440.411 271.879 440.974 272.555C441.546 273.242 442.154 273.721 442.798 273.994C443.452 274.258 444.091 274.338 444.716 274.234C445.332 274.12 445.897 273.86 446.409 273.455Z" fill="black"/>
</svg>
