<svg width="835" height="598" viewBox="0 0 835 598" fill="none" xmlns="http://www.w3.org/2000/svg">
<g clip-path="url(#clip0_39_170)">
<path d="M62.1721 595.82L60.1721 595.781C60.9456 573.544 63.3183 551.391 67.2717 529.494C75.9202 482.613 90.301 451.824 110.015 437.982L111.163 439.619C65.1116 471.953 62.1956 594.585 62.1721 595.82Z" fill="url(#paint0_linear_39_170)"/>
<path d="M87.172 595.342L85.172 595.303C85.215 593.088 86.465 540.889 107.015 526.461L108.163 528.098C88.4425 541.943 87.1818 594.81 87.172 595.342Z" fill="url(#paint1_linear_39_170)"/>
<path d="M122.541 439.801C128.064 439.801 132.541 435.324 132.541 429.801C132.541 424.278 128.064 419.801 122.541 419.801C117.018 419.801 112.541 424.278 112.541 429.801C112.541 435.324 117.018 439.801 122.541 439.801Z" fill="url(#paint2_linear_39_170)"/>
<path d="M117.589 525.801C123.112 525.801 127.589 521.324 127.589 515.801C127.589 510.278 123.112 505.801 117.589 505.801C112.066 505.801 107.589 510.278 107.589 515.801C107.589 521.324 112.066 525.801 117.589 525.801Z" fill="url(#paint3_linear_39_170)"/>
<path d="M82.5107 445.795C84.3901 457.799 79.4918 468.536 79.4918 468.536C79.4918 468.536 71.5465 459.81 69.6672 447.806C67.7878 435.802 72.6861 425.065 72.6861 425.065C72.6861 425.065 80.6314 433.791 82.5107 445.795Z" fill="url(#paint4_linear_39_170)"/>
<path d="M115.198 474.949C103.705 478.891 92.2792 475.939 92.2792 475.939C92.2792 475.939 99.4871 466.595 110.98 462.652C122.473 458.71 133.899 461.663 133.899 461.663C133.899 461.663 126.691 471.007 115.198 474.949Z" fill="url(#paint5_linear_39_170)"/>
<path d="M115.567 551.11C110.366 552.744 104.826 552.983 99.5031 551.804C102.883 547.5 107.435 544.266 112.611 542.491C117.787 540.716 123.365 540.475 128.675 541.797C125.197 545.996 120.677 549.207 115.567 551.11Z" fill="url(#paint6_linear_39_170)"/>
<path d="M676.377 316.044C763.65 316.044 834.398 245.295 834.398 158.022C834.398 70.7489 763.65 0 676.377 0C589.103 0 518.354 70.7489 518.354 158.022C518.354 245.295 589.103 316.044 676.377 316.044Z" fill="#F1F1F1"/>
<path d="M692.179 99.1909V165.34H596.02L578.256 186.654L580.284 165.34H571.641V99.1909H692.179Z" fill="url(#paint7_linear_39_170)"/>
<path opacity="0.1" d="M692.179 121.975H648.814V165.34H692.179V121.975Z" fill="black"/>
<path d="M658.369 131.53H778.907V197.679H770.262L772.292 218.994L754.53 197.679H658.369V131.53Z" fill="#9B20BD"/>
<path opacity="0.1" d="M578.991 197.32C593.604 197.32 605.45 196.165 605.45 194.739C605.45 193.313 593.604 192.157 578.991 192.157C564.378 192.157 552.531 193.313 552.531 194.739C552.531 196.165 564.378 197.32 578.991 197.32Z" fill="black"/>
<path opacity="0.1" d="M772.292 232.223C788.935 232.223 802.427 230.907 802.427 229.283C802.427 227.66 788.935 226.343 772.292 226.343C755.649 226.343 742.158 227.66 742.158 229.283C742.158 230.907 755.649 232.223 772.292 232.223Z" fill="black"/>
<path d="M228.544 443.396H276.9C276.9 445.468 329.76 447.15 329.76 447.15C330.926 448.028 331.989 449.035 332.928 450.153C335.749 453.518 337.292 457.772 337.282 462.164V465.167C337.28 470.144 335.303 474.917 331.783 478.436C328.264 481.955 323.491 483.933 318.515 483.935H228.544C223.568 483.931 218.796 481.952 215.278 478.433C211.759 474.914 209.78 470.143 209.776 465.167V462.164C209.783 457.189 211.762 452.419 215.281 448.901C218.799 445.383 223.568 443.403 228.544 443.396Z" fill="#3F3D56"/>
<path d="M283.227 483.189H263.708V595.851H283.227V483.189Z" fill="#3F3D56"/>
<path d="M338.779 595.165C338.779 597.274 309.202 595.981 272.717 595.981C236.231 595.981 206.654 597.274 206.654 595.165C206.654 593.056 236.231 576.333 272.717 576.333C309.202 576.333 338.779 593.056 338.779 595.165Z" fill="#3F3D56"/>
<path d="M351.891 582.293L366.417 582.292L373.328 526.261L351.888 526.262L351.891 582.293Z" fill="#CC9C8D"/>
<path d="M348.186 577.55L376.793 577.549H376.795C381.63 577.549 386.267 579.47 389.686 582.889C393.105 586.308 395.025 590.945 395.026 595.78V596.372L348.186 596.374L348.186 577.55Z" fill="#2F2E41"/>
<path d="M394.825 582.293L409.352 582.292L416.262 526.261L394.823 526.262L394.825 582.293Z" fill="#CC9C8D"/>
<path d="M391.12 577.55L419.728 577.549H419.729C424.564 577.549 429.201 579.47 432.62 582.889C436.039 586.308 437.96 590.945 437.96 595.78V596.372L391.12 596.374L391.12 577.55Z" fill="#2F2E41"/>
<path d="M344.266 404.961C344.064 403.359 343.513 401.821 342.652 400.455C341.792 399.088 340.642 397.928 339.284 397.054C337.926 396.181 336.393 395.615 334.793 395.398C333.193 395.181 331.565 395.318 330.023 395.798L313.856 376.417L299.682 383.37L322.898 410.418C323.876 412.954 325.751 415.044 328.167 416.29C330.583 417.536 333.372 417.853 336.006 417.18C338.64 416.508 340.936 414.892 342.458 412.64C343.98 410.388 344.624 407.656 344.266 404.961H344.266Z" fill="#CC9C8D"/>
<path d="M289.9 290.006L299.382 293.899L301.678 320.687L327.078 390.153L305.505 397.333L281.538 350.736L289.9 290.006Z" fill="#C7C5D7"/>
<path d="M265.275 259.038C279.224 259.038 290.533 247.73 290.533 233.78C290.533 219.831 279.224 208.523 265.275 208.523C251.326 208.523 240.018 219.831 240.018 233.78C240.018 247.73 251.326 259.038 265.275 259.038Z" fill="#CC9C8D"/>
<path d="M261.389 222.028C261.389 222.028 262.498 206.684 276.172 212.94C289.846 219.196 288.954 201.952 284.821 198.904C280.689 195.857 280.82 195.103 265.707 197.142C250.594 199.181 221.252 202.635 230.74 233.023C240.227 263.411 254.199 255.5 254.199 255.5C254.199 255.5 241.278 228.249 248.919 233.458L256.56 238.668L260.593 237.814L261.389 222.028Z" fill="#2F2E41"/>
<path d="M243.02 232.121L237.873 204.258C237.782 203.765 237.789 203.26 237.893 202.771C237.998 202.281 238.197 201.817 238.481 201.405C238.765 200.993 239.127 200.64 239.547 200.368C239.967 200.096 240.436 199.909 240.928 199.818L246.965 198.703L252.804 230.313L243.02 232.121Z" fill="#7E7D8A"/>
<path d="M248.82 247.94C255.16 247.94 260.3 242.8 260.3 236.459C260.3 230.119 255.16 224.979 248.82 224.979C242.479 224.979 237.339 230.119 237.339 236.459C237.339 242.8 242.479 247.94 248.82 247.94Z" fill="#7E7D8A"/>
<path d="M248.819 243.348C252.624 243.348 255.708 240.264 255.708 236.459C255.708 232.655 252.624 229.571 248.819 229.571C245.015 229.571 241.931 232.655 241.931 236.459C241.931 240.264 245.015 243.348 248.819 243.348Z" fill="#F2F2F2"/>
<path d="M248.819 238.756C250.088 238.756 251.116 237.728 251.116 236.459C251.116 235.191 250.088 234.163 248.819 234.163C247.551 234.163 246.523 235.191 246.523 236.459C246.523 237.728 247.551 238.756 248.819 238.756Z" fill="#7E7D8A"/>
<path d="M223.822 407.515C223.822 407.515 215.347 452.328 247.592 458.034C279.836 463.741 326.382 467.752 326.382 467.752L347.285 565.274L375.366 562.767C375.366 562.767 371.632 445.372 362.447 436.187C353.263 427.003 309.593 400.125 309.593 400.125L223.822 407.515Z" fill="#2F2E41"/>
<path d="M286.798 388.734L300.9 402.881C300.9 402.881 402.727 419.283 406.655 442.802C412.586 478.309 419.591 555.523 419.591 555.523L388.976 553.227L376.97 465.456L327.986 454.313L272.255 423.941L286.798 388.734Z" fill="#2F2E41"/>
<path d="M286.013 280.247L277.822 269.387L251.258 268.952C242.971 273.362 236.041 279.943 231.208 287.991C226.375 296.038 223.822 305.248 223.822 314.635V383.355C223.822 383.355 224.199 392.5 222.199 413.5C220.474 431.62 316.9 402.881 316.9 402.881L304.382 300.899C304.382 300.899 305.388 284.654 286.013 280.247Z" fill="#D0CDE1"/>
<path d="M310.321 427.676C310.119 426.074 309.568 424.536 308.707 423.17C307.846 421.804 306.696 420.643 305.338 419.769C303.98 418.896 302.448 418.33 300.848 418.113C299.248 417.896 297.619 418.033 296.078 418.513L279.911 399.132L265.737 406.085L288.952 433.133C289.931 435.67 291.806 437.759 294.222 439.005C296.638 440.251 299.427 440.568 302.061 439.896C304.695 439.223 306.99 437.607 308.513 435.355C310.035 433.103 310.678 430.371 310.321 427.676Z" fill="#CC9C8D"/>
<path d="M243.241 291.357L234.822 288.555C234.822 288.555 224.73 290.775 218.749 304.368C212.768 317.961 218.854 373.451 218.854 373.451L280.839 426.974L292.577 405.016L258.199 358.5C258.199 358.5 272.948 308.379 243.241 291.357Z" fill="#C7C5D7"/>
<path d="M504 597.283H1C0.734784 597.283 0.480429 597.178 0.292892 596.99C0.105356 596.803 0 596.548 0 596.283C0 596.018 0.105356 595.764 0.292892 595.576C0.480429 595.389 0.734784 595.283 1 595.283H504C504.265 595.283 504.52 595.389 504.707 595.576C504.895 595.764 505 596.018 505 596.283C505 596.548 504.895 596.803 504.707 596.99C504.52 597.178 504.265 597.283 504 597.283Z" fill="url(#paint8_linear_39_170)"/>
</g>
<defs>
<linearGradient id="paint0_linear_39_170" x1="85.6677" y1="437.982" x2="85.6677" y2="595.82" gradientUnits="userSpaceOnUse">
<stop stop-color="#9B20BD"/>
<stop offset="1" stop-color="#F1F1F1" stop-opacity="0"/>
</linearGradient>
<linearGradient id="paint1_linear_39_170" x1="96.6676" y1="526.461" x2="96.6676" y2="595.342" gradientUnits="userSpaceOnUse">
<stop stop-color="#9B20BD"/>
<stop offset="1" stop-color="#F1F1F1" stop-opacity="0"/>
</linearGradient>
<linearGradient id="paint2_linear_39_170" x1="122.541" y1="419.801" x2="122.541" y2="439.801" gradientUnits="userSpaceOnUse">
<stop stop-color="#9B20BD"/>
<stop offset="1" stop-color="#F1F1F1" stop-opacity="0"/>
</linearGradient>
<linearGradient id="paint3_linear_39_170" x1="117.589" y1="505.801" x2="117.589" y2="525.801" gradientUnits="userSpaceOnUse">
<stop stop-color="#9B20BD"/>
<stop offset="1" stop-color="#F1F1F1" stop-opacity="0"/>
</linearGradient>
<linearGradient id="paint4_linear_39_170" x1="76.089" y1="425.065" x2="76.089" y2="468.536" gradientUnits="userSpaceOnUse">
<stop stop-color="#9B20BD"/>
<stop offset="1" stop-color="#F1F1F1" stop-opacity="0"/>
</linearGradient>
<linearGradient id="paint5_linear_39_170" x1="113.089" y1="460.601" x2="113.089" y2="477.001" gradientUnits="userSpaceOnUse">
<stop stop-color="#9B20BD"/>
<stop offset="1" stop-color="#F1F1F1" stop-opacity="0"/>
</linearGradient>
<linearGradient id="paint6_linear_39_170" x1="114.089" y1="540.956" x2="114.089" y2="552.541" gradientUnits="userSpaceOnUse">
<stop stop-color="#9B20BD"/>
<stop offset="1" stop-color="#F1F1F1" stop-opacity="0"/>
</linearGradient>
<linearGradient id="paint7_linear_39_170" x1="631.91" y1="99.1909" x2="631.91" y2="186.654" gradientUnits="userSpaceOnUse">
<stop stop-color="#9B20BD"/>
<stop offset="1" stop-color="#9B20BD" stop-opacity="0"/>
</linearGradient>
<linearGradient id="paint8_linear_39_170" x1="-9.88778e-07" y1="597.001" x2="252.5" y2="597.284" gradientUnits="userSpaceOnUse">
<stop stop-color="#9B20BD"/>
<stop offset="1" stop-color="#CBCBCB" stop-opacity="0"/>
</linearGradient>
<clipPath id="clip0_39_170">
<rect width="834.398" height="597.283" fill="white"/>
</clipPath>
</defs>
</svg>
