<svg width="736" height="537" viewBox="0 0 736 537" fill="none" xmlns="http://www.w3.org/2000/svg">
<path d="M691.056 37.7598H54.8397V437.568H691.056V37.7598Z" fill="#3F3D56"/>
<path d="M672.965 109.947H386.517V437.197H672.965V109.947Z" fill="#F2F2F2"/>
<path d="M29.1658 415.195C37.8722 431.054 56.3505 437.861 56.3505 437.861C56.3505 437.861 60.7128 418.957 52.0063 403.098C43.2998 387.239 24.8216 380.431 24.8216 380.431C24.8216 380.431 20.4593 399.336 29.1658 415.195Z" fill="#3F3D56"/>
<path d="M35.1501 409.977C50.8688 419.265 56.9227 437.715 56.9227 437.715C56.9227 437.715 37.4913 441.105 21.7726 431.816C6.05382 422.528 0 404.078 0 404.078C0 404.078 19.4313 400.688 35.1501 409.977Z" fill="url(#paint0_linear_37_36)"/>
<path d="M657.134 140.397H483.403V147.277H657.134V140.397Z" fill="white"/>
<path d="M657.134 155.534H483.403V162.415H657.134V155.534Z" fill="white"/>
<path d="M542.248 170.671H483.403V177.552H542.248V170.671Z" fill="white"/>
<path d="M300.383 346.964H126.651V353.845H300.383V346.964Z" fill="white"/>
<path d="M300.383 362.102H126.651V368.982H300.383V362.102Z" fill="white"/>
<path d="M185.496 377.239H126.651V384.119H185.496V377.239Z" fill="white"/>
<path d="M616.429 224.801H442.698V231.681H616.429V224.801Z" fill="white"/>
<path d="M616.429 239.938H442.698V246.819H616.429V239.938Z" fill="white"/>
<path d="M616.429 254.746H442.698V261.626H616.429V254.746Z" fill="white"/>
<path d="M616.429 269.553H442.698V276.434H616.429V269.553Z" fill="white"/>
<path d="M616.429 284.361H442.698V291.242H616.429V284.361Z" fill="white"/>
<path d="M616.429 299.169H442.698V306.049H616.429V299.169Z" fill="white"/>
<path d="M616.429 313.977H442.698V320.857H616.429V313.977Z" fill="white"/>
<path d="M616.429 328.784H442.698V335.665H616.429V328.784Z" fill="white"/>
<path d="M616.429 343.592H442.698V350.472H616.429V343.592Z" fill="white"/>
<path d="M616.429 358.399H442.698V365.28H616.429V358.399Z" fill="white"/>
<path d="M616.429 373.207H442.698V380.088H616.429V373.207Z" fill="white"/>
<path d="M276.822 237.56C276.832 246.83 274.727 255.984 270.661 264.349C266.595 272.715 260.671 280.079 253.326 285.899C250.609 288.067 247.712 290.006 244.664 291.697C242.825 292.723 240.933 293.654 238.996 294.488C232.574 297.271 225.722 298.976 218.726 299.53C217.007 299.671 215.271 299.74 213.517 299.737C210.047 299.741 206.582 299.461 203.16 298.901C201.953 298.716 200.763 298.486 199.587 298.219C197.531 297.77 195.5 297.217 193.503 296.561C185.291 293.871 177.73 289.551 171.288 283.871C169.629 282.426 168.056 280.888 166.577 279.266C159.685 271.781 154.751 262.76 152.202 252.983C149.653 243.206 149.566 232.967 151.948 223.15C154.33 213.332 159.109 204.232 165.873 196.635C172.637 189.037 181.183 183.172 190.772 179.544C200.36 175.917 210.704 174.637 220.909 175.814C231.114 176.992 240.874 180.592 249.346 186.304C257.817 192.015 264.746 199.667 269.533 208.597C274.32 217.527 276.822 227.467 276.822 237.56Z" fill="url(#paint1_linear_37_36)"/>
<path d="M465.155 168.199C465.245 188.1 453.231 195.1 438.373 195.165C438.028 195.166 437.685 195.164 437.343 195.158C436.654 195.146 435.973 195.118 435.298 195.074C421.885 194.2 411.433 186.941 411.349 168.433C411.262 149.28 436.076 125 437.937 123.205L437.941 123.203C438.011 123.135 438.047 123.101 438.047 123.101C438.047 123.101 465.065 148.3 465.155 168.199Z" fill="url(#paint2_linear_37_36)"/>
<path d="M437.38 192.125L447.159 178.579L437.362 193.607L437.343 195.158C436.654 195.146 435.973 195.118 435.298 195.074L436.268 175.161L436.259 175.007L436.277 174.977L436.37 173.096L426.413 158.116L436.393 171.686L436.419 172.085L437.152 157.04L428.617 141.553L437.244 154.396L437.937 123.205L437.94 123.101L437.941 123.203L437.913 147.798L446.295 138.012L437.886 149.917L437.724 163.386L445.537 150.427L437.702 165.367L437.612 172.857L448.953 154.815L437.579 175.47L437.38 192.125Z" fill="#3F3D56"/>
<path d="M690.679 212.861C662.69 212.861 635.847 223.781 616.056 243.22C596.265 262.659 585.146 289.024 585.146 316.514V316.514C585.146 324.565 581.89 332.286 576.094 337.979C570.298 343.672 562.437 346.87 554.24 346.87H502.98C490.903 346.87 478.945 349.207 467.787 353.746C456.629 358.285 446.491 364.939 437.951 373.326C429.412 381.714 422.638 391.672 418.016 402.631C413.394 413.589 411.016 425.335 411.016 437.197V437.197H690.68V212.861H690.679Z" fill="#3F3D56"/>
<path d="M379.356 37.7598H365.787V437.568H379.356V37.7598Z" fill="#2F2E41"/>
<path d="M241.031 31.8366V21.4712C241.028 15.7789 238.723 10.3209 234.624 6.29712C230.524 2.2733 224.966 0.0129395 219.171 0.0129395C213.375 0.0129395 207.817 2.2733 203.718 6.29712C199.618 10.3209 197.314 15.7789 197.31 21.4712V31.8366H155.85V54.7885H282.491V31.8366H241.031ZM219.171 5.92309C221.705 5.92309 224.183 6.66128 226.29 8.04431C228.398 9.42734 230.04 11.3931 231.01 13.693C231.98 15.9929 232.234 18.5236 231.739 20.9651C231.245 23.4067 230.024 25.6494 228.232 27.4097C226.44 29.1699 224.156 30.3687 221.671 30.8543C219.185 31.34 216.608 31.0907 214.267 30.1381C211.925 29.1854 209.924 27.5722 208.516 25.5023C207.107 23.4325 206.356 20.999 206.356 18.5096C206.356 16.8567 206.687 15.22 207.331 13.693C207.975 12.1659 208.919 10.7784 210.109 9.60961C211.299 8.44084 212.712 7.51372 214.267 6.88119C215.821 6.24865 217.488 5.92309 219.171 5.92309Z" fill="#9B20BD"/>
<path d="M224.758 233.457C224.758 233.457 218.461 251.059 222.336 253.767C226.211 256.475 209.259 278.59 209.259 278.59L188.916 273.174L200.056 254.669C200.056 254.669 201.509 236.165 201.509 233.457C201.509 230.749 224.758 233.457 224.758 233.457Z" fill="#CC9C8D"/>
<path opacity="0.1" d="M224.758 233.457C224.758 233.457 218.461 251.059 222.336 253.767C226.211 256.475 209.259 278.59 209.259 278.59L188.916 273.174L200.056 254.669C200.056 254.669 201.509 236.165 201.509 233.457C201.509 230.749 224.758 233.457 224.758 233.457Z" fill="black"/>
<path d="M211.892 246.546C221.028 246.546 228.434 239.271 228.434 230.298C228.434 221.324 221.028 214.05 211.892 214.05C202.755 214.05 195.349 221.324 195.349 230.298C195.349 239.271 202.755 246.546 211.892 246.546Z" fill="#CC9C8D"/>
<path d="M199.587 298.22C197.531 297.771 195.501 297.217 193.503 296.561L196.669 275.238L197.649 268.664L202.67 270.515C203.348 270.759 204.117 271.048 204.999 271.366C205.673 271.625 206.394 271.746 207.118 271.72C207.841 271.695 208.552 271.524 209.205 271.218C214.06 269.034 216.947 260.534 216.947 260.534C216.947 260.534 217.143 262.918 217.399 266.953C217.859 274.039 218.522 286.226 218.726 299.53C217.007 299.671 215.271 299.74 213.517 299.738C210.047 299.741 206.583 299.461 203.16 298.901C201.954 298.716 200.763 298.486 199.587 298.22Z" fill="#D0CDE1"/>
<path d="M204.079 257.832L202.67 270.514L201.984 276.652L199.587 298.22C197.531 297.77 195.501 297.217 193.503 296.561C185.291 293.871 177.73 289.552 171.289 283.871L168.236 273.172C168.252 272.534 168.317 271.898 168.432 271.27C168.431 271.266 168.432 271.261 168.433 271.258C168.434 271.254 168.436 271.25 168.439 271.247C168.529 270.687 168.655 270.133 168.816 269.589C168.82 269.582 168.823 269.574 168.824 269.567C169.364 267.53 170.429 265.664 171.914 264.147C175.593 260.534 199.941 249.25 199.941 249.25L200.401 250.198L204.079 257.832Z" fill="#D0CDE1"/>
<path d="M211.539 207.335C215.206 207.206 219.131 207.142 222.223 209.084C223.646 210.058 224.893 211.257 225.915 212.634C228.927 216.373 231.529 221.078 230.41 225.717L229.111 225.219C229.111 226.457 229.391 227.68 229.932 228.799C229.749 228.277 229.136 229.121 229.3 229.65L230.731 234.262C230.14 234.083 229.517 234.028 228.902 234.1C228.288 234.173 227.696 234.371 227.164 234.682C226.633 234.994 226.174 235.411 225.817 235.908C225.461 236.405 225.214 236.969 225.094 237.566C224.93 232.209 224.364 226.067 219.94 222.931C217.71 221.349 214.886 220.866 212.169 220.437C209.663 220.042 207.036 219.665 204.636 220.475C202.235 221.285 200.191 223.696 200.735 226.132C200.163 226.005 199.564 226.075 199.038 226.33C198.512 226.584 198.09 227.008 197.844 227.531C197.38 228.592 197.177 229.745 197.251 230.897C196.072 231.716 194.729 230.089 194.248 228.751C193.12 225.61 192.116 222.267 192.724 218.99C193.332 215.713 196.051 212.582 199.442 212.571C199.031 212.127 198.811 211.543 198.83 210.942L201.625 210.711C200.915 210.612 200.263 210.274 199.779 209.755C200.901 210.967 209.724 207.399 211.539 207.335Z" fill="#2F2E41"/>
<path d="M250.032 269.567C249.602 272.95 247.145 282.509 244.665 291.697C242.825 292.723 240.933 293.654 238.996 294.488C232.574 297.271 225.722 298.976 218.726 299.53C217.007 299.671 215.271 299.74 213.517 299.737C210.047 299.741 206.583 299.461 203.16 298.901C204.441 294.044 206.167 286.04 207.78 278.2C208.27 275.83 208.753 273.468 209.205 271.218C210.977 262.348 212.349 255.122 212.349 255.122C212.349 255.122 217.851 249.821 221.115 248.592C221.558 248.398 222.043 248.319 222.525 248.362C225.216 248.799 228.895 255.122 228.895 255.122C228.895 255.122 245.403 260.527 249.263 266.664C249.85 267.517 250.122 268.541 250.032 269.567Z" fill="#D0CDE1"/>
<path d="M180.184 269.567L179.219 289.824C176.418 288.05 173.767 286.059 171.289 283.871C169.629 282.426 168.056 280.889 166.577 279.266C167.369 275.853 168.032 272.98 168.432 271.27C168.431 271.266 168.432 271.261 168.433 271.258C168.434 271.254 168.436 271.25 168.439 271.247C168.65 270.3 168.786 269.715 168.816 269.589C168.82 269.582 168.823 269.574 168.824 269.567H180.184Z" fill="#D0CDE1"/>
<path d="M253.326 285.9C250.609 288.067 247.712 290.006 244.664 291.697C242.825 292.723 240.933 293.654 238.996 294.488L237.164 284.004L239.003 264.147L249.263 266.664L250.032 266.857L253.326 285.9Z" fill="#D0CDE1"/>
<path d="M688.272 320.722C688.272 320.722 681.113 355.099 693.045 351.973C704.977 348.848 700.204 319.159 700.204 319.159L688.272 320.722Z" fill="#A0616A"/>
<path d="M721.682 178.526H713.727C713.727 178.526 704.977 184.777 705.772 191.808C706.568 198.84 691.454 259.781 691.454 267.594C691.454 275.407 688.272 277.75 688.272 282.438C688.272 287.126 689.863 290.251 688.272 292.595C686.681 294.939 683.5 309.002 684.295 314.471C684.758 318.103 684.758 321.777 684.295 325.409H704.182C704.182 325.409 718.5 277.75 721.682 275.407C724.864 273.063 726.454 269.156 726.454 266.812C726.454 264.469 724.864 264.469 728.841 261.343C732.818 258.218 730.432 244.155 730.432 244.155L736 230.092L721.682 178.526Z" fill="#D0CDE1"/>
<path opacity="0.1" d="M721.682 178.526H713.727C713.727 178.526 704.977 184.777 705.772 191.808C706.568 198.84 691.454 259.781 691.454 267.594C691.454 275.407 688.272 277.75 688.272 282.438C688.272 287.126 689.863 290.251 688.272 292.595C686.681 294.939 683.5 309.002 684.295 314.471C684.758 318.103 684.758 321.777 684.295 325.409H704.182C704.182 325.409 718.5 277.75 721.682 275.407C724.864 273.063 726.454 269.156 726.454 266.812C726.454 264.469 724.864 264.469 728.841 261.343C732.818 258.218 730.432 244.155 730.432 244.155L736 230.092L721.682 178.526Z" fill="black"/>
<path d="M610.317 301.58C610.317 301.58 603.158 335.957 615.09 332.832C627.022 329.706 622.249 300.017 622.249 300.017L610.317 301.58Z" fill="#CC9C8D"/>
<path d="M612.704 461.745L607.931 481.277L625.431 492.215L630.204 468.776L612.704 461.745Z" fill="#CC9C8D"/>
<path d="M695.432 485.965L686.681 497.684L697.022 509.404H711.341V485.965H695.432Z" fill="#CC9C8D"/>
<path d="M713.727 499.247H708.954C706.592 498.775 704.157 498.775 701.795 499.247C697.022 500.028 690.546 492.508 690.546 492.508L684.295 497.684C684.295 497.684 671.568 500.81 677.931 515.654L692.25 524.248C692.25 524.248 699.409 539.093 713.727 536.749C728.045 534.405 717.704 518.779 717.704 518.779L713.727 499.247Z" fill="#2F2E41"/>
<path d="M612.704 471.902L611.494 466.697L600.772 469.558C600.772 469.558 578.499 455.495 578.499 474.246C578.499 492.997 595.999 499.247 595.999 499.247C595.999 499.247 602.363 498.466 602.363 503.935C602.363 509.404 619.067 517.998 625.431 514.873C631.795 511.748 631.795 503.935 631.795 503.935L630.204 482.059L623.045 483.621C623.045 483.621 609.522 482.84 611.908 479.715C614.294 476.59 612.704 471.902 612.704 471.902Z" fill="#2F2E41"/>
<path d="M635.772 292.205C635.772 292.205 626.226 304.705 626.226 311.737C626.226 318.769 623.045 381.272 623.045 381.272C623.045 381.272 605.544 460.964 610.317 465.652C615.09 470.339 629.408 477.371 631.795 475.027C634.181 472.683 650.886 387.522 650.886 387.522L670.772 335.176L689.068 410.18C689.068 410.18 688.272 475.027 691.454 475.808C694.636 476.59 696.227 477.371 694.636 480.496C693.045 483.621 690.659 489.872 690.659 489.872C690.659 489.872 710.545 494.559 714.523 491.434C718.5 488.309 719.295 412.524 714.523 385.96C709.75 359.396 715.318 298.455 715.318 298.455L635.772 292.205Z" fill="#2F2E41"/>
<path d="M664.806 141.024C677.986 141.024 688.67 130.53 688.67 117.586C688.67 104.641 677.986 94.1467 664.806 94.1467C651.627 94.1467 640.942 104.641 640.942 117.586C640.942 130.53 651.627 141.024 664.806 141.024Z" fill="#CC9C8D"/>
<path d="M657.647 132.43C657.647 132.43 660.829 148.837 657.647 153.525C654.465 158.213 700.602 155.088 700.602 155.088C700.602 155.088 678.329 130.086 680.715 125.399C683.102 120.711 657.647 132.43 657.647 132.43Z" fill="#CC9C8D"/>
<path d="M637.363 159.385C637.363 159.385 653.272 139.071 673.159 142.977C678.527 144.032 683.433 145.087 687.733 146.065C702.886 149.51 715.486 160.117 720.662 174.522C722.005 178.258 722.676 181.847 722.079 184.777C719.693 196.496 720.886 289.079 720.886 289.079C720.886 289.079 714.523 291.423 715.318 294.548C716.113 297.673 721.682 301.58 716.113 301.58C710.545 301.58 626.226 298.455 627.817 296.111C629.408 293.767 637.363 159.385 637.363 159.385Z" fill="#D0CDE1"/>
<path d="M645.318 159.385H637.363C637.363 159.385 628.613 165.635 629.408 172.667C630.204 179.698 615.09 240.639 615.09 248.452C615.09 256.265 611.908 258.609 611.908 263.297C611.908 267.984 613.499 271.11 611.908 273.453C610.317 275.797 607.135 289.861 607.931 295.33C608.393 298.962 608.393 302.636 607.931 306.268H627.817C627.817 306.268 642.136 258.609 645.318 256.265C648.499 253.921 650.09 250.015 650.09 247.671C650.09 245.327 648.499 245.327 652.477 242.202C656.454 239.077 654.068 225.013 654.068 225.013L659.636 210.95L645.318 159.385Z" fill="#D0CDE1"/>
<path opacity="0.1" d="M633.72 295.08L657.647 243.373L645.684 298.364L633.72 295.08Z" fill="black"/>
<path d="M656.481 82.1406L656.494 80.2065C658.138 80.0011 659.805 80.0585 661.431 80.3765C661.449 79.2089 661.202 78.0521 660.709 76.9897C662.347 77.2014 663.94 77.6672 665.429 78.3697L665.977 74.7773L680.225 79.6815C685.339 81.4419 690.744 83.4021 694.064 87.6097C697.764 92.3005 698.033 98.8641 696.612 104.632C695.192 110.4 692.302 115.699 690.146 121.242C689.36 123.609 688.346 125.897 687.119 128.076C682.813 134.894 673.09 137.327 665.472 134.43C662.661 133.361 660.006 131.579 658.581 128.969C657.852 127.35 657.232 125.686 656.724 123.988C655.4 120.543 653.467 113.337 650.253 111.441C648.839 110.606 646.683 114.188 645.462 113.099C642.324 110.299 642.305 105.407 643.547 101.426C644.718 97.4362 646.181 93.5351 647.924 89.7527C648.673 88.2265 656.483 81.9086 656.481 82.1406Z" fill="#2F2E41"/>
<defs>
<linearGradient id="paint0_linear_37_36" x1="28.4613" y1="403.475" x2="28.4613" y2="438.318" gradientUnits="userSpaceOnUse">
<stop stop-color="#A30DBC"/>
<stop offset="1" stop-color="#200D97" stop-opacity="0"/>
<stop offset="1" stop-color="#200D97"/>
</linearGradient>
<linearGradient id="paint1_linear_37_36" x1="213.523" y1="175.39" x2="213.523" y2="299.737" gradientUnits="userSpaceOnUse">
<stop stop-color="#A30DBC"/>
<stop offset="1" stop-color="#200D97" stop-opacity="0"/>
</linearGradient>
<linearGradient id="paint2_linear_37_36" x1="438.252" y1="123.101" x2="438.252" y2="195.165" gradientUnits="userSpaceOnUse">
<stop stop-color="#A30DBC"/>
<stop offset="1" stop-color="#200D97" stop-opacity="0.4"/>
</linearGradient>
</defs>
</svg>
