<svg width="396" height="100" viewBox="0 0 396 100" fill="none" xmlns="http://www.w3.org/2000/svg">
<g clip-path="url(#clip0_631_8)">
<path d="M8.33333 27.0835C8.33333 25.9335 9.26667 25.0002 10.4167 25.0002L89.5833 25.0002C90.7333 25.0002 91.6667 25.9335 91.6667 27.0835V72.9168C91.6667 74.0668 90.7333 75.0002 89.5833 75.0002H10.4167C9.26667 75.0002 8.33333 74.0668 8.33333 72.9168L8.33333 27.0835ZM8.33333 16.6668C3.73333 16.6668 0 20.4002 0 25.0002L0 75.0002C0 79.6002 3.73333 83.3335 8.33333 83.3335H91.6667C96.2667 83.3335 100 79.6002 100 75.0002V25.0002C100 20.4002 96.2667 16.6668 91.6667 16.6668H8.33333ZM12.5 56.2502V43.7502C12.5 42.6002 13.4333 41.6668 14.5875 41.6668C15.7333 41.6668 16.6667 42.6002 16.6667 43.7502L16.6667 56.2502C16.6667 57.396 15.7333 58.3335 14.5875 58.3335C13.4333 58.3335 12.5 57.396 12.5 56.2502ZM87.5 50.0002C87.5 52.3043 85.6333 54.1668 83.3333 54.1668C81.0333 54.1668 79.1667 52.3043 79.1667 50.0002C79.1667 47.7002 81.0333 45.8377 83.3333 45.8377C85.6333 45.8377 87.5 47.7002 87.5 50.0002ZM75 29.1668V70.8335H20.8333L20.8333 29.1668L75 29.1668Z" fill="#9B20BD"/>
</g>
<path d="M368.917 8.33333C370.067 8.33333 371 9.26667 371 10.4167V89.5833C371 90.7333 370.067 91.6667 368.917 91.6667H323.083C321.933 91.6667 321 90.7333 321 89.5833V10.4167C321 9.26667 321.933 8.33333 323.083 8.33333H368.917ZM379.333 8.33333C379.333 3.73333 375.6 0 371 0H321C316.4 0 312.667 3.73333 312.667 8.33333V91.6667C312.667 96.2667 316.4 100 321 100H371C375.6 100 379.333 96.2667 379.333 91.6667V8.33333ZM339.75 12.5H352.25C353.4 12.5 354.333 13.4333 354.333 14.5875C354.333 15.7333 353.4 16.6667 352.25 16.6667H339.75C338.604 16.6667 337.667 15.7333 337.667 14.5875C337.667 13.4333 338.604 12.5 339.75 12.5ZM346 87.5C343.696 87.5 341.833 85.6333 341.833 83.3333C341.833 81.0333 343.696 79.1667 346 79.1667C348.3 79.1667 350.163 81.0333 350.163 83.3333C350.163 85.6333 348.3 87.5 346 87.5ZM366.833 75H325.167V20.8333H366.833V75Z" fill="#9B20BD"/>
<path d="M185.5 27.5L193.142 20L223 50L193.142 80L185.5 72.5L208 50L185.5 27.5Z" fill="#9B20BD"/>
<defs>
<clipPath id="clip0_631_8">
<rect width="100" height="100" fill="white"/>
</clipPath>
</defs>
</svg>
