<svg width="50" height="50" viewBox="0 0 50 50" fill="none" xmlns="http://www.w3.org/2000/svg">
<path d="M0 0V50H50V0H0ZM39.2958 19.2437C39.7292 28.8625 32.5562 39.5875 19.8583 39.5875C15.9958 39.5875 12.4021 38.4562 9.375 36.5146C13.0042 36.9417 16.625 35.9354 19.5 33.6833C16.5062 33.6271 13.9812 31.65 13.1125 28.9333C14.1854 29.1375 15.2396 29.0771 16.2 28.8167C12.9104 28.1562 10.6417 25.1937 10.7146 22.025C11.6354 22.5375 12.6917 22.8458 13.8104 22.8812C10.7667 20.8458 9.90417 16.825 11.6937 13.75C15.0667 17.8875 20.1062 20.6104 25.7896 20.8958C24.7917 16.6187 28.0375 12.5 32.4521 12.5C34.4187 12.5 36.1958 13.3292 37.4437 14.6604C39.0021 14.3542 40.4667 13.7854 41.7875 13.0021C41.2771 14.6 40.1917 15.9396 38.7812 16.7854C40.1646 16.6187 41.4833 16.2521 42.7083 15.7083C41.7917 17.075 40.6312 18.2792 39.2958 19.2437Z" fill="url(#paint0_linear_1_49)"/>
<defs>
<linearGradient id="paint0_linear_1_49" x1="25" y1="0" x2="25" y2="50" gradientUnits="userSpaceOnUse">
<stop stop-color="#A30DBC"/>
<stop offset="1" stop-color="#200D97" stop-opacity="0.49"/>
</linearGradient>
</defs>
</svg>
